{"glyphs":{"0":{"ha":1174,"x_min":97,"x_max":1076,"o":"m 588 -14 q 324 56 433 -14 q 156 259 214 126 q 97 576 97 392 q 156 894 97 761 q 324 1097 214 1026 q 588 1167 433 1167 q 851 1097 742 1167 q 1019 894 961 1026 q 1076 576 1076 761 q 1019 259 1076 392 q 851 56 961 126 q 588 -14 742 -14 m 588 28 q 822 163 747 28 q 896 576 896 297 q 822 990 896 856 q 588 1125 747 1125 q 352 990 428 1125 q 276 576 276 854 q 352 163 276 299 q 588 28 428 28 z "},"1":{"ha":793,"x_min":97,"x_max":751,"o":"m 504 1153 q 511 1146 511 1153 l 511 253 q 528 115 511 158 q 592 57 546 72 q 740 42 639 42 q 751 35 751 42 l 751 7 q 740 0 751 0 l 108 0 q 97 7 97 0 l 97 35 q 108 42 97 42 q 256 57 210 42 q 320 115 303 72 q 338 253 338 158 l 338 824 q 345 872 338 850 q 379 918 353 894 l 379 932 q 288 897 339 903 q 104 890 238 890 q 97 897 97 890 l 97 925 q 104 932 97 932 q 276 942 219 932 q 376 999 333 953 q 453 1147 418 1044 q 461 1153 454 1153 l 504 1153 z "},"2":{"ha":1049,"x_min":97,"x_max":951,"o":"m 935 289 q 940 281 942 286 l 915 111 l 899 0 l 97 0 l 97 139 q 135 346 97 267 q 254 473 174 425 q 472 556 335 521 q 645 616 583 583 q 739 709 707 649 q 771 876 771 769 q 723 1060 771 996 q 567 1125 675 1125 q 325 875 325 1125 q 331 796 325 833 q 322 783 331 783 l 160 783 q 150 796 150 783 q 149 839 149 811 q 276 1098 149 1029 q 565 1167 403 1167 q 845 1097 739 1167 q 951 867 951 1026 q 832 593 951 688 q 488 449 713 499 q 292 390 365 422 q 179 298 219 357 q 139 139 139 239 l 139 69 l 153 69 q 180 126 163 114 q 232 139 197 139 l 667 139 q 806 151 760 139 q 871 193 851 163 q 900 286 890 224 q 907 293 900 293 l 935 289 z "},"3":{"ha":1039,"x_min":97,"x_max":942,"o":"m 99 357 q 108 369 99 369 l 271 369 q 278 357 281 369 q 272 278 272 301 q 333 90 272 151 q 522 28 394 28 q 703 92 644 28 q 761 290 761 156 q 703 501 761 438 q 532 565 646 565 l 364 565 q 357 572 357 565 l 357 600 q 364 607 357 607 l 532 607 q 655 629 608 607 q 724 707 701 651 q 747 863 747 763 q 695 1062 747 999 q 522 1125 643 1125 q 342 1066 399 1125 q 286 885 286 1007 q 292 796 286 839 q 285 783 294 783 l 122 783 q 113 796 113 783 q 111 839 111 811 q 238 1098 111 1029 q 528 1167 365 1167 q 820 1088 713 1167 q 928 853 928 1008 q 861 667 928 731 q 649 593 794 604 l 649 579 q 869 494 796 567 q 942 300 942 421 q 828 65 942 144 q 528 -14 714 -14 q 230 55 363 -14 q 97 315 97 124 q 99 357 97 343 z "},"4":{"ha":985,"x_min":39,"x_max":915,"o":"m 908 496 q 915 490 915 496 l 915 249 q 908 243 915 243 l 881 243 q 874 249 874 243 q 860 310 874 290 q 810 339 847 331 q 694 349 774 347 l 694 253 q 709 115 694 158 q 765 57 724 72 q 894 42 806 42 q 904 35 904 42 l 904 7 q 894 0 904 0 l 321 0 q 311 7 311 0 l 311 35 q 321 42 311 42 q 451 57 410 42 q 506 115 492 72 q 521 253 521 158 l 521 349 l 53 349 q 42 354 44 349 q 44 365 39 360 l 678 1161 q 688 1167 682 1167 q 694 1156 694 1167 l 694 390 q 810 400 774 392 q 860 428 847 408 q 874 490 874 449 q 881 496 874 496 l 908 496 m 576 390 q 530 442 539 415 q 521 517 521 468 l 521 897 l 118 390 l 481 390 q 537 388 519 390 q 576 376 554 386 l 576 390 z "},"5":{"ha":999,"x_min":83,"x_max":901,"o":"m 86 357 q 96 369 86 369 l 258 369 q 265 357 268 369 q 260 267 260 314 q 313 87 260 146 q 482 28 367 28 q 659 113 597 28 q 721 367 721 197 q 669 644 721 553 q 486 736 617 736 q 306 682 392 736 q 178 549 219 628 l 101 549 l 154 1153 l 860 1153 l 860 871 q 853 864 860 864 l 825 864 q 818 871 818 864 q 803 964 818 935 q 744 1003 788 993 q 607 1014 701 1014 l 282 1014 q 230 1026 247 1014 q 203 1083 213 1039 l 189 1083 l 147 586 l 161 586 q 303 728 210 679 q 514 778 396 778 q 729 726 642 778 q 859 588 817 675 q 901 390 901 500 q 840 167 901 258 q 681 31 779 76 q 474 -14 583 -14 q 200 53 317 -14 q 83 310 83 121 q 86 357 83 324 z "},"6":{"ha":1079,"x_min":97,"x_max":982,"o":"m 608 778 q 814 726 729 778 q 940 588 899 675 q 982 390 982 500 q 921 167 982 258 q 762 31 860 76 q 554 -14 664 -14 q 238 101 378 -14 q 97 547 97 215 q 151 877 97 738 q 308 1092 204 1017 q 563 1167 413 1167 q 774 1126 683 1167 q 911 1010 864 1085 q 954 836 958 936 q 947 829 954 829 l 781 829 q 774 836 774 829 l 775 871 q 719 1063 775 1000 q 558 1125 663 1125 q 390 1061 451 1125 q 307 913 329 997 q 285 756 285 829 q 276 677 285 710 q 247 610 267 644 l 261 610 q 402 735 322 692 q 608 778 482 778 m 543 28 q 733 113 664 28 q 801 367 801 199 q 738 639 801 542 q 558 736 674 736 q 409 692 472 736 q 312 573 346 647 q 278 413 278 499 q 344 122 278 217 q 543 28 410 28 z "},"7":{"ha":938,"x_min":68,"x_max":910,"o":"m 96 1139 q 111 1153 99 1153 l 897 1153 q 907 1149 904 1153 q 910 1136 910 1146 l 910 1035 q 901 1021 910 1024 q 587 697 719 922 q 454 13 454 471 q 443 0 454 0 l 285 0 q 274 11 274 0 q 426 621 274 364 q 833 1046 579 878 l 825 1060 q 742 1022 776 1031 q 657 1014 708 1014 l 336 1014 q 198 1002 243 1014 q 135 960 153 990 q 111 868 117 931 q 103 861 108 861 l 75 864 q 70 867 72 864 q 69 872 68 869 l 86 1042 l 96 1139 z "},"8":{"ha":1111,"x_min":97,"x_max":1014,"o":"m 97 307 q 182 515 97 435 q 418 607 267 594 l 418 621 q 207 698 275 632 q 139 874 139 764 q 254 1091 139 1015 q 556 1167 369 1167 q 857 1091 742 1167 q 972 874 972 1015 q 904 698 972 764 q 693 621 836 632 l 693 607 q 929 515 844 594 q 1014 307 1014 435 q 556 -14 1014 -14 q 97 307 97 -14 m 319 876 q 344 730 319 782 q 420 656 369 678 q 556 635 471 635 q 691 656 640 635 q 767 730 742 678 q 792 876 792 782 q 733 1063 792 1001 q 556 1125 675 1125 q 378 1063 436 1125 q 319 876 319 1001 m 278 304 q 345 94 278 160 q 556 28 413 28 q 766 94 699 28 q 833 304 833 160 q 803 476 833 413 q 713 566 774 539 q 556 593 653 593 q 398 566 458 593 q 308 476 338 539 q 278 304 278 413 z "},"9":{"ha":1079,"x_min":97,"x_max":982,"o":"m 525 1167 q 842 1052 701 1167 q 982 606 982 938 q 928 276 982 415 q 771 61 875 136 q 517 -14 667 -14 q 306 27 396 -14 q 168 142 215 68 q 125 317 121 217 q 132 324 125 324 l 299 324 q 306 317 306 324 l 304 282 q 360 90 304 153 q 521 28 417 28 q 689 92 628 28 q 772 240 750 156 q 794 397 794 324 q 803 476 794 443 q 832 543 813 508 l 818 543 q 677 418 757 461 q 471 375 597 375 q 265 426 350 375 q 139 565 181 478 q 97 763 97 653 q 158 985 97 894 q 317 1122 219 1076 q 525 1167 415 1167 m 521 417 q 670 461 607 417 q 767 580 733 506 q 801 740 801 654 q 735 1031 801 936 q 536 1125 669 1125 q 347 1040 415 1125 q 278 786 278 954 q 342 514 278 611 q 521 417 406 417 z "}," ":{"ha":417,"x_min":0,"x_max":0,"o":""},"A":{"ha":1417,"x_min":56,"x_max":1361,"o":"m 1356 42 q 1361 35 1361 42 l 1361 7 q 1356 0 1361 0 l 896 0 q 889 7 889 0 l 889 35 q 896 42 889 42 q 975 53 953 42 q 997 94 997 64 q 963 233 997 132 q 849 373 931 313 q 652 468 767 433 q 413 504 538 503 l 310 236 q 276 140 286 172 q 265 88 265 107 q 288 51 265 61 q 363 42 310 42 q 369 35 369 42 l 369 7 q 363 0 369 0 l 61 0 q 56 7 56 0 l 56 35 q 61 42 56 42 q 144 56 113 42 q 205 110 176 69 q 265 236 233 151 l 617 1153 l 804 1153 l 1151 236 q 1212 110 1183 151 q 1272 56 1240 69 q 1356 42 1304 42 m 428 546 q 722 488 585 540 q 917 360 860 436 l 931 360 q 865 482 890 414 l 651 1049 q 643 1090 643 1072 l 629 1090 q 621 1049 629 1072 l 428 546 z "},"Á":{"ha":1417,"x_min":56,"x_max":1361,"o":"m 1356 42 q 1361 35 1361 42 l 1361 7 q 1356 0 1361 0 l 896 0 q 889 7 889 0 l 889 35 q 896 42 889 42 q 975 53 953 42 q 997 94 997 64 q 963 233 997 132 q 849 373 931 313 q 652 468 767 433 q 413 504 538 503 l 310 236 q 276 140 286 172 q 265 88 265 107 q 288 51 265 61 q 363 42 310 42 q 369 35 369 42 l 369 7 q 363 0 369 0 l 61 0 q 56 7 56 0 l 56 35 q 61 42 56 42 q 144 56 113 42 q 205 110 176 69 q 265 236 233 151 l 617 1153 l 804 1153 l 1151 236 q 1212 110 1183 151 q 1272 56 1240 69 q 1356 42 1304 42 m 428 546 q 722 488 585 540 q 917 360 860 436 l 931 360 q 865 482 890 414 l 651 1049 q 643 1090 643 1072 l 629 1090 q 621 1049 629 1072 l 428 546 z "},"Â":{"ha":1417,"x_min":56,"x_max":1361,"o":"m 1356 42 q 1361 35 1361 42 l 1361 7 q 1356 0 1361 0 l 896 0 q 889 7 889 0 l 889 35 q 896 42 889 42 q 975 53 953 42 q 997 94 997 64 q 963 233 997 132 q 849 373 931 313 q 652 468 767 433 q 413 504 538 503 l 310 236 q 276 140 286 172 q 265 88 265 107 q 288 51 265 61 q 363 42 310 42 q 369 35 369 42 l 369 7 q 363 0 369 0 l 61 0 q 56 7 56 0 l 56 35 q 61 42 56 42 q 144 56 113 42 q 205 110 176 69 q 265 236 233 151 l 617 1153 l 804 1153 l 1151 236 q 1212 110 1183 151 q 1272 56 1240 69 q 1356 42 1304 42 m 428 546 q 722 488 585 540 q 917 360 860 436 l 931 360 q 865 482 890 414 l 651 1049 q 643 1090 643 1072 l 629 1090 q 621 1049 629 1072 l 428 546 z "},"Ä":{"ha":1417,"x_min":56,"x_max":1361,"o":"m 1356 42 q 1361 35 1361 42 l 1361 7 q 1356 0 1361 0 l 896 0 q 889 7 889 0 l 889 35 q 896 42 889 42 q 975 53 953 42 q 997 94 997 64 q 963 233 997 132 q 849 373 931 313 q 652 468 767 433 q 413 504 538 503 l 310 236 q 276 140 286 172 q 265 88 265 107 q 288 51 265 61 q 363 42 310 42 q 369 35 369 42 l 369 7 q 363 0 369 0 l 61 0 q 56 7 56 0 l 56 35 q 61 42 56 42 q 144 56 113 42 q 205 110 176 69 q 265 236 233 151 l 617 1153 l 804 1153 l 1151 236 q 1212 110 1183 151 q 1272 56 1240 69 q 1356 42 1304 42 m 428 546 q 722 488 585 540 q 917 360 860 436 l 931 360 q 865 482 890 414 l 651 1049 q 643 1090 643 1072 l 629 1090 q 621 1049 629 1072 l 428 546 z "},"À":{"ha":1417,"x_min":56,"x_max":1361,"o":"m 1356 42 q 1361 35 1361 42 l 1361 7 q 1356 0 1361 0 l 896 0 q 889 7 889 0 l 889 35 q 896 42 889 42 q 975 53 953 42 q 997 94 997 64 q 963 233 997 132 q 849 373 931 313 q 652 468 767 433 q 413 504 538 503 l 310 236 q 276 140 286 172 q 265 88 265 107 q 288 51 265 61 q 363 42 310 42 q 369 35 369 42 l 369 7 q 363 0 369 0 l 61 0 q 56 7 56 0 l 56 35 q 61 42 56 42 q 144 56 113 42 q 205 110 176 69 q 265 236 233 151 l 617 1153 l 804 1153 l 1151 236 q 1212 110 1183 151 q 1272 56 1240 69 q 1356 42 1304 42 m 428 546 q 722 488 585 540 q 917 360 860 436 l 931 360 q 865 482 890 414 l 651 1049 q 643 1090 643 1072 l 629 1090 q 621 1049 629 1072 l 428 546 z "},"Ã":{"ha":1417,"x_min":56,"x_max":1361,"o":"m 1356 42 q 1361 35 1361 42 l 1361 7 q 1356 0 1361 0 l 896 0 q 889 7 889 0 l 889 35 q 896 42 889 42 q 975 53 953 42 q 997 94 997 64 q 963 233 997 132 q 849 373 931 313 q 652 468 767 433 q 413 504 538 503 l 310 236 q 276 140 286 172 q 265 88 265 107 q 288 51 265 61 q 363 42 310 42 q 369 35 369 42 l 369 7 q 363 0 369 0 l 61 0 q 56 7 56 0 l 56 35 q 61 42 56 42 q 144 56 113 42 q 205 110 176 69 q 265 236 233 151 l 617 1153 l 804 1153 l 1151 236 q 1212 110 1183 151 q 1272 56 1240 69 q 1356 42 1304 42 m 428 546 q 722 488 585 540 q 917 360 860 436 l 931 360 q 865 482 890 414 l 651 1049 q 643 1090 643 1072 l 629 1090 q 621 1049 629 1072 l 428 546 z "},"B":{"ha":1114,"x_min":69,"x_max":1058,"o":"m 735 625 q 965 554 871 625 q 1058 326 1058 483 q 944 87 1058 174 q 610 0 831 0 l 76 0 q 69 7 69 0 l 69 35 q 76 42 69 42 q 169 57 140 42 q 209 115 199 72 q 219 253 219 158 l 219 900 q 209 1038 219 994 q 169 1096 199 1081 q 76 1111 140 1111 q 69 1118 69 1111 l 69 1146 q 76 1153 69 1153 l 554 1153 q 880 1086 771 1153 q 989 882 989 1019 q 910 690 989 742 q 735 639 832 639 l 735 625 m 314 1111 q 368 1060 351 1092 q 389 973 385 1029 q 393 792 393 917 l 393 653 l 596 653 q 753 716 699 653 q 808 882 808 779 q 747 1051 808 992 q 526 1111 685 1111 l 393 1111 q 354 1113 368 1111 q 314 1125 340 1115 l 314 1111 m 582 42 q 773 81 708 42 q 858 180 838 119 q 878 326 878 240 q 819 533 878 456 q 596 611 760 611 l 393 611 l 393 42 l 582 42 z "},"C":{"ha":1250,"x_min":83,"x_max":1169,"o":"m 83 590 q 152 896 83 765 q 342 1097 221 1026 q 617 1167 463 1167 q 990 1028 861 1167 q 1118 640 1118 889 q 1115 635 1118 638 q 1110 633 1113 632 l 943 665 q 938 672 938 668 q 613 1125 932 1125 q 353 987 443 1125 q 264 590 264 849 q 381 163 264 292 q 683 33 499 33 q 906 84 813 33 q 1051 209 999 135 q 1125 357 1104 283 q 1133 363 1126 363 l 1161 363 q 1167 354 1169 363 q 1088 190 1147 275 q 917 46 1028 106 q 650 -14 807 -14 q 346 62 474 -14 q 151 274 218 138 q 83 590 83 411 z "},"Ç":{"ha":1250,"x_min":83,"x_max":1169,"o":"m 1161 363 q 1167 354 1169 363 q 1089 192 1147 275 q 922 48 1031 108 q 660 -14 814 -12 l 603 -89 l 638 -89 q 748 -112 713 -89 q 783 -190 783 -136 q 731 -302 783 -261 q 594 -343 678 -343 q 472 -322 538 -343 q 467 -315 467 -321 l 467 -247 q 476 -240 467 -237 q 601 -265 551 -265 q 675 -244 650 -265 q 700 -187 700 -224 q 675 -142 700 -154 q 586 -131 650 -131 l 513 -131 l 593 -11 q 319 78 433 0 q 144 289 204 157 q 83 590 83 421 q 152 896 83 765 q 342 1097 221 1026 q 617 1167 463 1167 q 990 1028 861 1167 q 1118 640 1118 889 q 1115 635 1118 638 q 1110 633 1113 632 l 943 665 q 938 672 938 668 q 613 1125 932 1125 q 353 987 443 1125 q 264 590 264 849 q 381 163 264 292 q 683 33 499 33 q 906 84 813 33 q 1051 209 999 135 q 1125 357 1104 283 q 1133 363 1126 363 l 1161 363 z "},"D":{"ha":1253,"x_min":69,"x_max":1169,"o":"m 596 1153 q 890 1094 761 1153 q 1094 907 1018 1036 q 1169 576 1169 778 q 1094 246 1169 375 q 890 58 1018 117 q 596 0 761 0 l 76 0 q 69 7 69 0 l 69 35 q 76 42 69 42 q 169 57 140 42 q 209 115 199 72 q 219 253 219 158 l 219 900 q 209 1038 219 994 q 169 1096 199 1081 q 76 1111 140 1111 q 69 1118 69 1111 l 69 1146 q 76 1153 69 1153 l 596 1153 m 568 42 q 885 172 781 42 q 989 576 989 303 q 885 981 989 850 q 568 1111 781 1111 l 393 1111 q 354 1113 368 1111 q 314 1125 340 1115 l 314 1111 q 367 1065 350 1092 q 388 997 383 1038 q 393 875 393 956 l 393 42 l 568 42 z "},"E":{"ha":1071,"x_min":69,"x_max":1018,"o":"m 1011 263 q 1015 250 1018 260 l 957 1 l 951 -24 q 946 -28 950 -28 l 929 -28 q 922 -21 922 -28 q 909 -3 922 -7 q 874 0 896 0 l 76 0 q 69 7 69 0 l 69 35 q 76 42 69 42 q 169 57 140 42 q 209 115 199 72 q 219 253 219 158 l 219 900 q 209 1038 219 994 q 169 1096 199 1081 q 76 1111 140 1111 q 69 1118 69 1111 l 69 1146 q 76 1153 69 1153 l 846 1153 q 881 1156 868 1153 q 894 1174 894 1160 q 901 1181 894 1181 l 918 1181 q 924 1176 922 1181 l 929 1151 l 988 903 q 983 890 990 893 l 957 885 l 956 885 q 947 893 950 885 q 899 1031 925 986 q 826 1093 874 1075 q 686 1111 779 1111 l 393 1111 q 354 1113 368 1111 q 314 1125 340 1115 l 314 1111 q 367 1065 350 1092 q 388 997 383 1038 q 393 875 393 956 l 393 597 l 574 597 q 711 606 668 597 q 769 638 754 614 q 785 711 785 661 q 792 717 785 717 l 819 717 q 826 711 826 717 l 826 442 q 819 436 826 436 l 792 436 q 785 442 785 436 q 769 515 785 492 q 711 547 754 539 q 574 556 668 556 l 393 556 l 393 42 l 714 42 q 854 60 807 42 q 927 122 901 78 q 975 260 953 167 q 985 268 978 271 l 1011 263 z "},"É":{"ha":1071,"x_min":69,"x_max":1018,"o":"m 1011 263 q 1015 250 1018 260 l 957 1 l 951 -24 q 946 -28 950 -28 l 929 -28 q 922 -21 922 -28 q 909 -3 922 -7 q 874 0 896 0 l 76 0 q 69 7 69 0 l 69 35 q 76 42 69 42 q 169 57 140 42 q 209 115 199 72 q 219 253 219 158 l 219 900 q 209 1038 219 994 q 169 1096 199 1081 q 76 1111 140 1111 q 69 1118 69 1111 l 69 1146 q 76 1153 69 1153 l 846 1153 q 881 1156 868 1153 q 894 1174 894 1160 q 901 1181 894 1181 l 918 1181 q 924 1176 922 1181 l 929 1151 l 988 903 q 983 890 990 893 l 957 885 l 956 885 q 947 893 950 885 q 899 1031 925 986 q 826 1093 874 1075 q 686 1111 779 1111 l 393 1111 q 354 1113 368 1111 q 314 1125 340 1115 l 314 1111 q 367 1065 350 1092 q 388 997 383 1038 q 393 875 393 956 l 393 597 l 574 597 q 711 606 668 597 q 769 638 754 614 q 785 711 785 661 q 792 717 785 717 l 819 717 q 826 711 826 717 l 826 442 q 819 436 826 436 l 792 436 q 785 442 785 436 q 769 515 785 492 q 711 547 754 539 q 574 556 668 556 l 393 556 l 393 42 l 714 42 q 854 60 807 42 q 927 122 901 78 q 975 260 953 167 q 985 268 978 271 l 1011 263 z "},"Ê":{"ha":1071,"x_min":69,"x_max":1018,"o":"m 1011 263 q 1015 250 1018 260 l 957 1 l 951 -24 q 946 -28 950 -28 l 929 -28 q 922 -21 922 -28 q 909 -3 922 -7 q 874 0 896 0 l 76 0 q 69 7 69 0 l 69 35 q 76 42 69 42 q 169 57 140 42 q 209 115 199 72 q 219 253 219 158 l 219 900 q 209 1038 219 994 q 169 1096 199 1081 q 76 1111 140 1111 q 69 1118 69 1111 l 69 1146 q 76 1153 69 1153 l 846 1153 q 881 1156 868 1153 q 894 1174 894 1160 q 901 1181 894 1181 l 918 1181 q 924 1176 922 1181 l 929 1151 l 988 903 q 983 890 990 893 l 957 885 l 956 885 q 947 893 950 885 q 899 1031 925 986 q 826 1093 874 1075 q 686 1111 779 1111 l 393 1111 q 354 1113 368 1111 q 314 1125 340 1115 l 314 1111 q 367 1065 350 1092 q 388 997 383 1038 q 393 875 393 956 l 393 597 l 574 597 q 711 606 668 597 q 769 638 754 614 q 785 711 785 661 q 792 717 785 717 l 819 717 q 826 711 826 717 l 826 442 q 819 436 826 436 l 792 436 q 785 442 785 436 q 769 515 785 492 q 711 547 754 539 q 574 556 668 556 l 393 556 l 393 42 l 714 42 q 854 60 807 42 q 927 122 901 78 q 975 260 953 167 q 985 268 978 271 l 1011 263 z "},"Ë":{"ha":1071,"x_min":69,"x_max":1018,"o":"m 1011 263 q 1015 250 1018 260 l 957 1 l 951 -24 q 946 -28 950 -28 l 929 -28 q 922 -21 922 -28 q 909 -3 922 -7 q 874 0 896 0 l 76 0 q 69 7 69 0 l 69 35 q 76 42 69 42 q 169 57 140 42 q 209 115 199 72 q 219 253 219 158 l 219 900 q 209 1038 219 994 q 169 1096 199 1081 q 76 1111 140 1111 q 69 1118 69 1111 l 69 1146 q 76 1153 69 1153 l 846 1153 q 881 1156 868 1153 q 894 1174 894 1160 q 901 1181 894 1181 l 918 1181 q 924 1176 922 1181 l 929 1151 l 988 903 q 983 890 990 893 l 957 885 l 956 885 q 947 893 950 885 q 899 1031 925 986 q 826 1093 874 1075 q 686 1111 779 1111 l 393 1111 q 354 1113 368 1111 q 314 1125 340 1115 l 314 1111 q 367 1065 350 1092 q 388 997 383 1038 q 393 875 393 956 l 393 597 l 574 597 q 711 606 668 597 q 769 638 754 614 q 785 711 785 661 q 792 717 785 717 l 819 717 q 826 711 826 717 l 826 442 q 819 436 826 436 l 792 436 q 785 442 785 436 q 769 515 785 492 q 711 547 754 539 q 574 556 668 556 l 393 556 l 393 42 l 714 42 q 854 60 807 42 q 927 122 901 78 q 975 260 953 167 q 985 268 978 271 l 1011 263 z "},"È":{"ha":1071,"x_min":69,"x_max":1018,"o":"m 1011 263 q 1015 250 1018 260 l 957 1 l 951 -24 q 946 -28 950 -28 l 929 -28 q 922 -21 922 -28 q 909 -3 922 -7 q 874 0 896 0 l 76 0 q 69 7 69 0 l 69 35 q 76 42 69 42 q 169 57 140 42 q 209 115 199 72 q 219 253 219 158 l 219 900 q 209 1038 219 994 q 169 1096 199 1081 q 76 1111 140 1111 q 69 1118 69 1111 l 69 1146 q 76 1153 69 1153 l 846 1153 q 881 1156 868 1153 q 894 1174 894 1160 q 901 1181 894 1181 l 918 1181 q 924 1176 922 1181 l 929 1151 l 988 903 q 983 890 990 893 l 957 885 l 956 885 q 947 893 950 885 q 899 1031 925 986 q 826 1093 874 1075 q 686 1111 779 1111 l 393 1111 q 354 1113 368 1111 q 314 1125 340 1115 l 314 1111 q 367 1065 350 1092 q 388 997 383 1038 q 393 875 393 956 l 393 597 l 574 597 q 711 606 668 597 q 769 638 754 614 q 785 711 785 661 q 792 717 785 717 l 819 717 q 826 711 826 717 l 826 442 q 819 436 826 436 l 792 436 q 785 442 785 436 q 769 515 785 492 q 711 547 754 539 q 574 556 668 556 l 393 556 l 393 42 l 714 42 q 854 60 807 42 q 927 122 901 78 q 975 260 953 167 q 985 268 978 271 l 1011 263 z "},"F":{"ha":1043,"x_min":69,"x_max":990,"o":"m 988 903 q 983 890 990 893 l 957 885 l 956 885 q 947 893 950 885 q 899 1031 925 986 q 826 1093 874 1075 q 686 1111 779 1111 l 393 1111 q 354 1113 368 1111 q 314 1125 340 1115 l 314 1111 q 367 1065 350 1092 q 388 997 383 1038 q 393 875 393 956 l 393 556 l 560 556 q 697 564 654 556 q 756 596 740 572 q 771 669 771 619 q 778 675 771 675 l 806 675 q 813 669 813 675 l 813 400 q 806 394 813 394 l 778 394 q 771 400 771 394 q 756 474 771 450 q 697 506 740 497 q 560 514 654 514 l 393 514 l 393 253 q 403 115 393 158 q 443 57 414 72 q 536 42 472 42 q 543 35 543 42 l 543 7 q 536 0 543 0 l 76 0 q 69 7 69 0 l 69 35 q 76 42 69 42 q 169 57 140 42 q 209 115 199 72 q 219 253 219 158 l 219 900 q 209 1038 219 994 q 169 1096 199 1081 q 76 1111 140 1111 q 69 1118 69 1111 l 69 1146 q 76 1153 69 1153 l 846 1153 q 881 1156 868 1153 q 894 1174 894 1160 q 901 1181 894 1181 l 918 1181 q 924 1176 922 1181 l 929 1151 l 988 903 z "},"G":{"ha":1264,"x_min":83,"x_max":1222,"o":"m 83 590 q 150 897 83 767 q 340 1097 217 1028 q 626 1167 463 1167 q 892 1108 782 1167 q 1057 951 1003 1050 q 1104 738 1111 853 q 1101 732 1104 735 q 1096 731 1099 729 l 929 763 q 924 769 924 765 q 894 954 929 874 q 791 1080 860 1035 q 626 1125 722 1125 q 352 990 440 1125 q 264 590 264 854 q 374 163 264 292 q 656 33 483 33 q 803 58 732 33 q 919 125 875 83 l 919 354 q 937 456 919 421 q 1013 499 954 490 l 1011 513 l 567 474 q 560 481 560 474 l 557 508 q 564 515 557 515 l 1214 565 q 1221 560 1218 567 l 1222 532 q 1217 524 1222 525 q 1142 503 1167 519 q 1109 442 1118 486 q 1100 304 1100 397 l 1100 121 q 858 13 967 39 q 636 -14 750 -14 q 336 62 461 -14 q 147 274 211 138 q 83 590 83 411 z "},"H":{"ha":1419,"x_min":69,"x_max":1350,"o":"m 1343 1111 q 1250 1096 1279 1111 q 1210 1038 1221 1081 q 1200 900 1200 994 l 1200 253 q 1210 115 1200 158 q 1250 57 1221 72 q 1343 42 1279 42 q 1350 35 1350 42 l 1350 7 q 1343 0 1350 0 l 883 0 q 876 7 876 0 l 876 35 q 883 42 876 42 q 976 57 947 42 q 1016 115 1006 72 q 1026 253 1026 158 l 1026 583 l 393 583 q 354 585 368 583 q 314 597 340 588 l 314 583 q 367 537 350 564 q 388 469 383 510 q 393 347 393 428 l 393 253 q 403 115 393 158 q 443 57 414 72 q 536 42 472 42 q 543 35 543 42 l 543 7 q 536 0 543 0 l 76 0 q 69 7 69 0 l 69 35 q 76 42 69 42 q 169 57 140 42 q 209 115 199 72 q 219 253 219 158 l 219 900 q 209 1038 219 994 q 169 1096 199 1081 q 76 1111 140 1111 q 69 1118 69 1111 l 69 1146 q 76 1153 69 1153 l 536 1153 q 543 1146 543 1153 l 543 1118 q 536 1111 543 1111 q 443 1096 472 1111 q 403 1038 414 1081 q 393 900 393 994 l 393 625 l 1026 625 l 1026 900 q 1016 1038 1026 994 q 976 1096 1006 1081 q 883 1111 947 1111 q 876 1118 876 1111 l 876 1146 q 883 1153 876 1153 l 1343 1153 q 1350 1146 1350 1153 l 1350 1118 q 1343 1111 1350 1111 z "},"I":{"ha":613,"x_min":69,"x_max":543,"o":"m 219 900 q 209 1038 219 994 q 169 1096 199 1081 q 76 1111 140 1111 q 69 1118 69 1111 l 69 1146 q 76 1153 69 1153 l 536 1153 q 543 1146 543 1153 l 543 1118 q 536 1111 543 1111 q 443 1096 472 1111 q 403 1038 414 1081 q 393 900 393 994 l 393 253 q 403 115 393 158 q 443 57 414 72 q 536 42 472 42 q 543 35 543 42 l 543 7 q 536 0 543 0 l 76 0 q 69 7 69 0 l 69 35 q 76 42 69 42 q 169 57 140 42 q 209 115 199 72 q 219 253 219 158 l 219 900 z "},"Í":{"ha":613,"x_min":64,"x_max":561,"o":"m 219 900 q 209 1038 219 994 q 169 1096 199 1081 q 76 1111 140 1111 q 69 1118 69 1111 l 69 1146 q 76 1153 69 1153 l 536 1153 q 543 1146 543 1153 l 543 1118 q 536 1111 543 1111 q 443 1096 472 1111 q 403 1038 414 1081 q 393 900 393 994 l 393 253 q 403 115 393 158 q 443 57 414 72 q 536 42 472 42 q 543 35 543 42 l 543 7 q 536 0 543 0 l 76 0 q 69 7 69 0 l 69 35 q 76 42 69 42 q 169 57 140 42 q 209 115 199 72 q 219 253 219 158 l 219 900 z "},"Î":{"ha":613,"x_min":33,"x_max":583,"o":"m 219 900 q 209 1038 219 994 q 169 1096 199 1081 q 76 1111 140 1111 q 69 1118 69 1111 l 69 1146 q 76 1153 69 1153 l 536 1153 q 543 1146 543 1153 l 543 1118 q 536 1111 543 1111 q 443 1096 472 1111 q 403 1038 414 1081 q 393 900 393 994 l 393 253 q 403 115 393 158 q 443 57 414 72 q 536 42 472 42 q 543 35 543 42 l 543 7 q 536 0 543 0 l 76 0 q 69 7 69 0 l 69 35 q 76 42 69 42 q 169 57 140 42 q 209 115 199 72 q 219 253 219 158 l 219 900 z "},"Ï":{"ha":613,"x_min":69,"x_max":543,"o":"m 219 900 q 209 1038 219 994 q 169 1096 199 1081 q 76 1111 140 1111 q 69 1118 69 1111 l 69 1146 q 76 1153 69 1153 l 536 1153 q 543 1146 543 1153 l 543 1118 q 536 1111 543 1111 q 443 1096 472 1111 q 403 1038 414 1081 q 393 900 393 994 l 393 253 q 403 115 393 158 q 443 57 414 72 q 536 42 472 42 q 543 35 543 42 l 543 7 q 536 0 543 0 l 76 0 q 69 7 69 0 l 69 35 q 76 42 69 42 q 169 57 140 42 q 209 115 199 72 q 219 253 219 158 l 219 900 z "},"Ì":{"ha":613,"x_min":54,"x_max":551,"o":"m 219 900 q 209 1038 219 994 q 169 1096 199 1081 q 76 1111 140 1111 q 69 1118 69 1111 l 69 1146 q 76 1153 69 1153 l 536 1153 q 543 1146 543 1153 l 543 1118 q 536 1111 543 1111 q 443 1096 472 1111 q 403 1038 414 1081 q 393 900 393 994 l 393 253 q 403 115 393 158 q 443 57 414 72 q 536 42 472 42 q 543 35 543 42 l 543 7 q 536 0 543 0 l 76 0 q 69 7 69 0 l 69 35 q 76 42 69 42 q 169 57 140 42 q 209 115 199 72 q 219 253 219 158 l 219 900 z "},"J":{"ha":588,"x_min":56,"x_max":532,"o":"m 525 1153 q 532 1146 532 1153 l 532 1118 q 525 1111 532 1111 q 432 1096 461 1111 q 392 1038 403 1081 q 382 900 382 994 l 382 83 q 63 -304 382 -237 q 58 -303 60 -306 q 56 -297 56 -300 l 56 -269 q 61 -262 56 -264 q 208 28 208 -214 l 208 900 q 198 1038 208 994 q 158 1096 188 1081 q 65 1111 129 1111 q 58 1118 58 1111 l 58 1146 q 65 1153 58 1153 l 525 1153 z "},"K":{"ha":1335,"x_min":69,"x_max":1307,"o":"m 1301 42 q 1307 35 1307 42 l 1307 7 q 1301 0 1307 0 l 818 0 q 810 7 810 0 l 810 35 q 818 42 810 42 q 892 47 871 42 q 914 71 914 53 q 897 116 914 88 q 836 211 881 144 l 594 576 l 393 326 l 393 253 q 403 115 393 158 q 443 57 414 72 q 536 42 472 42 q 543 35 543 42 l 543 7 q 536 0 543 0 l 76 0 q 69 7 69 0 l 69 35 q 76 42 69 42 q 169 57 140 42 q 209 115 199 72 q 219 253 219 158 l 219 900 q 209 1038 219 994 q 169 1096 199 1081 q 76 1111 140 1111 q 69 1118 69 1111 l 69 1146 q 76 1153 69 1153 l 536 1153 q 543 1146 543 1153 l 543 1118 q 536 1111 543 1111 q 443 1096 472 1111 q 403 1038 414 1081 q 393 900 393 994 l 393 482 q 388 420 393 444 q 365 376 382 396 l 379 376 l 849 956 q 918 1045 900 1019 q 936 1085 936 1071 q 910 1106 936 1100 q 821 1111 885 1111 q 813 1118 813 1111 l 813 1146 q 821 1153 813 1153 l 1176 1153 q 1182 1146 1182 1153 l 1182 1118 q 1176 1111 1182 1111 q 1084 1101 1122 1111 q 1002 1058 1046 1092 q 903 957 958 1025 l 636 626 l 636 614 q 690 618 665 618 q 780 594 742 618 q 858 507 818 569 l 1050 213 q 1137 101 1099 138 q 1212 53 1175 65 q 1301 42 1249 42 z "},"L":{"ha":993,"x_min":69,"x_max":940,"o":"m 933 188 q 938 179 940 186 l 889 15 l 878 -24 q 872 -28 876 -28 l 856 -28 q 849 -21 849 -28 q 835 -3 849 -7 q 800 0 822 0 l 76 0 q 69 7 69 0 l 69 35 q 76 42 69 42 q 169 57 140 42 q 209 115 199 72 q 219 253 219 158 l 219 900 q 209 1038 219 994 q 169 1096 199 1081 q 76 1111 140 1111 q 69 1118 69 1111 l 69 1146 q 76 1153 69 1153 l 536 1153 q 543 1146 543 1153 l 543 1118 q 536 1111 543 1111 q 443 1096 472 1111 q 403 1038 414 1081 q 393 900 393 994 l 393 278 q 388 156 393 197 q 367 88 383 115 q 314 42 350 61 l 314 28 q 355 40 340 38 q 393 42 369 42 l 644 42 q 784 55 736 42 q 856 99 832 68 q 899 190 881 129 q 907 196 900 196 l 933 188 z "},"M":{"ha":1797,"x_min":69,"x_max":1728,"o":"m 76 0 q 69 7 69 0 l 69 35 q 76 42 69 42 q 169 57 140 42 q 209 115 199 72 q 219 253 219 158 l 219 900 q 209 1038 219 994 q 169 1096 199 1081 q 76 1111 140 1111 q 69 1118 69 1111 l 69 1146 q 76 1153 69 1153 l 432 1153 q 453 1147 443 1153 q 469 1131 464 1140 l 900 301 q 915 269 910 282 q 919 240 919 257 q 910 192 919 219 l 924 192 l 1376 1129 q 1392 1147 1382 1140 q 1415 1153 1403 1153 l 1721 1153 q 1728 1146 1728 1153 l 1728 1118 q 1721 1111 1728 1111 q 1628 1096 1657 1111 q 1588 1038 1599 1081 q 1578 900 1578 994 l 1578 253 q 1588 115 1578 158 q 1628 57 1599 72 q 1721 42 1657 42 q 1728 35 1728 42 l 1728 7 q 1721 0 1728 0 l 1261 0 q 1254 7 1254 0 l 1254 35 q 1261 42 1254 42 q 1354 57 1325 42 q 1394 115 1383 72 q 1404 253 1404 158 l 1404 1061 l 1390 1061 l 874 -8 q 867 -14 872 -14 q 858 -8 861 -14 l 307 1054 q 274 1094 292 1083 q 224 1111 256 1106 l 224 1097 q 249 1071 242 1083 q 258 1034 256 1058 q 261 958 261 1010 l 261 253 q 272 115 261 158 q 311 57 282 72 q 404 42 340 42 q 411 35 411 42 l 411 7 q 404 0 411 0 l 76 0 z "},"N":{"ha":1378,"x_min":69,"x_max":1308,"o":"m 1301 1153 q 1308 1146 1308 1153 l 1308 1118 q 1301 1111 1308 1111 q 1208 1096 1238 1111 q 1169 1038 1179 1081 q 1158 900 1158 994 l 1158 7 q 1151 0 1158 0 l 1117 0 q 1093 14 1103 0 l 339 1000 q 275 1076 300 1051 q 224 1111 250 1101 l 224 1097 q 248 1067 240 1085 q 258 1013 256 1049 q 261 903 261 978 l 261 253 q 272 115 261 158 q 311 57 282 72 q 404 42 340 42 q 411 35 411 42 l 411 7 q 404 0 411 0 l 76 0 q 69 7 69 0 l 69 35 q 76 42 69 42 q 169 57 140 42 q 209 115 199 72 q 219 253 219 158 l 219 900 q 209 1038 219 994 q 169 1096 199 1081 q 76 1111 140 1111 q 69 1118 69 1111 l 69 1146 q 76 1153 69 1153 l 422 1153 q 448 1149 440 1153 q 465 1133 456 1146 l 1078 329 q 1097 295 1092 311 q 1103 251 1103 279 l 1117 251 l 1117 900 q 1106 1038 1117 994 q 1067 1096 1096 1081 q 974 1111 1038 1111 q 967 1118 967 1111 l 967 1146 q 974 1153 967 1153 l 1301 1153 z "},"Ñ":{"ha":1378,"x_min":69,"x_max":1308,"o":"m 1301 1153 q 1308 1146 1308 1153 l 1308 1118 q 1301 1111 1308 1111 q 1208 1096 1238 1111 q 1169 1038 1179 1081 q 1158 900 1158 994 l 1158 7 q 1151 0 1158 0 l 1117 0 q 1093 14 1103 0 l 339 1000 q 275 1076 300 1051 q 224 1111 250 1101 l 224 1097 q 248 1067 240 1085 q 258 1013 256 1049 q 261 903 261 978 l 261 253 q 272 115 261 158 q 311 57 282 72 q 404 42 340 42 q 411 35 411 42 l 411 7 q 404 0 411 0 l 76 0 q 69 7 69 0 l 69 35 q 76 42 69 42 q 169 57 140 42 q 209 115 199 72 q 219 253 219 158 l 219 900 q 209 1038 219 994 q 169 1096 199 1081 q 76 1111 140 1111 q 69 1118 69 1111 l 69 1146 q 76 1153 69 1153 l 422 1153 q 448 1149 440 1153 q 465 1133 456 1146 l 1078 329 q 1097 295 1092 311 q 1103 251 1103 279 l 1117 251 l 1117 900 q 1106 1038 1117 994 q 1067 1096 1096 1081 q 974 1111 1038 1111 q 967 1118 967 1111 l 967 1146 q 974 1153 967 1153 l 1301 1153 z "},"O":{"ha":1313,"x_min":83,"x_max":1229,"o":"m 657 -14 q 367 52 497 -14 q 160 251 238 118 q 83 576 83 385 q 160 901 83 768 q 367 1101 238 1035 q 657 1167 497 1167 q 947 1101 817 1167 q 1153 901 1076 1035 q 1229 576 1229 768 q 1153 251 1229 385 q 947 52 1076 118 q 657 -14 817 -14 m 657 28 q 858 84 769 28 q 997 263 946 140 q 1049 576 1049 386 q 997 890 1049 767 q 858 1069 946 1013 q 657 1125 769 1125 q 456 1068 544 1125 q 315 888 367 1011 q 263 576 263 765 q 315 263 263 386 q 456 84 367 140 q 657 28 544 28 z "},"Ó":{"ha":1313,"x_min":83,"x_max":1229,"o":"m 657 -14 q 367 52 497 -14 q 160 251 238 118 q 83 576 83 385 q 160 901 83 768 q 367 1101 238 1035 q 657 1167 497 1167 q 947 1101 817 1167 q 1153 901 1076 1035 q 1229 576 1229 768 q 1153 251 1229 385 q 947 52 1076 118 q 657 -14 817 -14 m 657 28 q 858 84 769 28 q 997 263 946 140 q 1049 576 1049 386 q 997 890 1049 767 q 858 1069 946 1013 q 657 1125 769 1125 q 456 1068 544 1125 q 315 888 367 1011 q 263 576 263 765 q 315 263 263 386 q 456 84 367 140 q 657 28 544 28 z "},"Ô":{"ha":1313,"x_min":83,"x_max":1229,"o":"m 657 -14 q 367 52 497 -14 q 160 251 238 118 q 83 576 83 385 q 160 901 83 768 q 367 1101 238 1035 q 657 1167 497 1167 q 947 1101 817 1167 q 1153 901 1076 1035 q 1229 576 1229 768 q 1153 251 1229 385 q 947 52 1076 118 q 657 -14 817 -14 m 657 28 q 858 84 769 28 q 997 263 946 140 q 1049 576 1049 386 q 997 890 1049 767 q 858 1069 946 1013 q 657 1125 769 1125 q 456 1068 544 1125 q 315 888 367 1011 q 263 576 263 765 q 315 263 263 386 q 456 84 367 140 q 657 28 544 28 z "},"Ö":{"ha":1313,"x_min":83,"x_max":1229,"o":"m 657 -14 q 367 52 497 -14 q 160 251 238 118 q 83 576 83 385 q 160 901 83 768 q 367 1101 238 1035 q 657 1167 497 1167 q 947 1101 817 1167 q 1153 901 1076 1035 q 1229 576 1229 768 q 1153 251 1229 385 q 947 52 1076 118 q 657 -14 817 -14 m 657 28 q 858 84 769 28 q 997 263 946 140 q 1049 576 1049 386 q 997 890 1049 767 q 858 1069 946 1013 q 657 1125 769 1125 q 456 1068 544 1125 q 315 888 367 1011 q 263 576 263 765 q 315 263 263 386 q 456 84 367 140 q 657 28 544 28 z "},"Ò":{"ha":1313,"x_min":83,"x_max":1229,"o":"m 657 -14 q 367 52 497 -14 q 160 251 238 118 q 83 576 83 385 q 160 901 83 768 q 367 1101 238 1035 q 657 1167 497 1167 q 947 1101 817 1167 q 1153 901 1076 1035 q 1229 576 1229 768 q 1153 251 1229 385 q 947 52 1076 118 q 657 -14 817 -14 m 657 28 q 858 84 769 28 q 997 263 946 140 q 1049 576 1049 386 q 997 890 1049 767 q 858 1069 946 1013 q 657 1125 769 1125 q 456 1068 544 1125 q 315 888 367 1011 q 263 576 263 765 q 315 263 263 386 q 456 84 367 140 q 657 28 544 28 z "},"Õ":{"ha":1313,"x_min":83,"x_max":1229,"o":"m 657 -14 q 367 52 497 -14 q 160 251 238 118 q 83 576 83 385 q 160 901 83 768 q 367 1101 238 1035 q 657 1167 497 1167 q 947 1101 817 1167 q 1153 901 1076 1035 q 1229 576 1229 768 q 1153 251 1229 385 q 947 52 1076 118 q 657 -14 817 -14 m 657 28 q 858 84 769 28 q 997 263 946 140 q 1049 576 1049 386 q 997 890 1049 767 q 858 1069 946 1013 q 657 1125 769 1125 q 456 1068 544 1125 q 315 888 367 1011 q 263 576 263 765 q 315 263 263 386 q 456 84 367 140 q 657 28 544 28 z "},"Œ":{"ha":1939,"x_min":83,"x_max":1886,"o":"m 1879 263 q 1883 250 1886 261 l 1825 1 l 1819 -24 q 1814 -28 1818 -28 l 1797 -28 q 1790 -21 1790 -28 q 1777 -3 1790 -7 q 1742 0 1764 0 l 1072 0 q 1068 7 1068 0 l 1068 35 q 1072 42 1068 42 q 1117 56 1103 42 q 1136 109 1131 69 q 1143 235 1142 149 q 940 49 1068 113 q 657 -14 813 -14 q 367 52 497 -14 q 160 251 238 118 q 83 576 83 385 q 160 901 83 768 q 367 1101 238 1035 q 657 1167 497 1167 q 940 1103 813 1167 q 1143 918 1068 1040 q 1136 1044 1142 1004 q 1117 1097 1131 1083 q 1072 1111 1103 1111 q 1068 1118 1068 1111 l 1068 1146 q 1072 1153 1068 1153 l 1714 1153 q 1749 1156 1736 1153 q 1763 1174 1763 1160 q 1769 1181 1763 1181 l 1786 1181 q 1792 1176 1790 1181 l 1797 1151 l 1856 903 q 1851 890 1858 893 l 1825 885 l 1824 885 q 1815 893 1818 885 q 1767 1031 1793 986 q 1694 1093 1742 1075 q 1554 1111 1647 1111 l 1317 1111 q 1278 1113 1292 1111 q 1238 1125 1264 1115 l 1238 1111 q 1290 1065 1274 1092 q 1312 997 1307 1038 q 1317 875 1317 956 l 1317 597 l 1442 597 q 1579 606 1536 597 q 1638 638 1622 614 q 1653 711 1653 661 q 1660 717 1653 717 l 1688 717 q 1694 711 1694 717 l 1694 442 q 1688 436 1694 436 l 1660 436 q 1653 442 1653 436 q 1638 515 1653 492 q 1579 547 1622 539 q 1442 556 1536 556 l 1317 556 l 1317 42 l 1582 42 q 1722 60 1675 42 q 1795 122 1769 78 q 1843 260 1821 167 q 1853 268 1846 271 l 1879 263 m 657 28 q 858 84 769 28 q 997 263 946 140 q 1049 576 1049 386 q 997 890 1049 767 q 858 1069 946 1013 q 657 1125 769 1125 q 456 1068 544 1125 q 315 888 367 1011 q 263 576 263 765 q 315 263 263 386 q 456 84 367 140 q 657 28 544 28 z "},"P":{"ha":1072,"x_min":56,"x_max":1017,"o":"m 596 1153 q 912 1063 807 1153 q 1017 806 1017 974 q 912 548 1017 638 q 596 458 807 458 l 379 458 l 379 253 q 390 115 379 158 q 429 57 400 72 q 522 42 458 42 q 529 35 529 42 l 529 7 q 522 0 529 0 l 63 0 q 56 7 56 0 l 56 35 q 63 42 56 42 q 156 57 126 42 q 195 115 185 72 q 206 253 206 158 l 206 900 q 195 1038 206 994 q 156 1096 185 1081 q 63 1111 126 1111 q 56 1118 56 1111 l 56 1146 q 63 1153 56 1153 l 596 1153 m 568 500 q 746 540 688 500 q 820 642 804 579 q 836 806 836 704 q 820 969 836 907 q 746 1072 804 1032 q 568 1111 688 1111 l 379 1111 q 340 1113 354 1111 q 300 1125 326 1115 l 300 1111 q 353 1065 336 1092 q 374 997 369 1038 q 379 875 379 956 l 379 500 l 568 500 z "},"Q":{"ha":1257,"x_min":56,"x_max":1201,"o":"m 629 -14 q 446 13 531 -14 l 286 -224 l 300 -224 q 342 -184 321 -196 q 390 -169 364 -172 q 471 -167 417 -167 l 1006 -167 q 1013 -174 1013 -167 l 1013 -340 q 1006 -347 1013 -347 l 194 -347 q 178 -342 185 -347 q 171 -326 171 -336 q 178 -308 171 -319 l 404 26 q 151 226 247 86 q 56 576 56 365 q 135 900 56 767 q 345 1100 214 1033 q 629 1167 476 1167 q 913 1100 782 1167 q 1122 901 1043 1033 q 1201 576 1201 768 q 1122 252 1201 385 q 913 53 1043 119 q 629 -14 782 -14 m 235 576 q 289 254 235 378 q 438 75 343 131 l 979 871 q 841 1064 932 1003 q 629 1125 750 1125 q 344 994 453 1125 q 235 576 235 864 m 629 28 q 913 158 806 28 q 1021 576 1021 288 q 994 819 1021 711 l 476 56 q 629 28 544 28 z "},"R":{"ha":1239,"x_min":69,"x_max":1211,"o":"m 1204 42 q 1211 35 1211 42 l 1211 7 q 1204 0 1211 0 q 994 13 1067 0 q 866 85 921 26 q 786 271 811 143 l 771 351 q 740 500 751 460 q 707 555 728 540 q 638 569 686 569 q 511 587 564 569 q 407 639 458 604 l 393 639 l 393 253 q 403 115 393 158 q 443 57 414 72 q 536 42 472 42 q 543 35 543 42 l 543 7 q 536 0 543 0 l 76 0 q 69 7 69 0 l 69 35 q 76 42 69 42 q 169 57 140 42 q 209 115 199 72 q 219 253 219 158 l 219 900 q 209 1038 219 994 q 169 1096 199 1081 q 76 1111 140 1111 q 69 1118 69 1111 l 69 1146 q 76 1153 69 1153 l 582 1153 q 815 1115 721 1153 q 956 1011 910 1076 q 1003 861 1003 946 q 943 690 1003 764 q 775 588 883 617 l 775 574 q 863 539 833 564 q 910 460 892 514 q 958 278 929 406 q 1007 140 979 190 q 1082 66 1035 90 q 1204 42 1129 42 m 610 611 q 749 648 701 611 q 809 738 796 685 q 822 861 822 790 q 806 985 822 933 q 731 1074 790 1038 q 554 1111 672 1111 l 393 1111 q 354 1113 368 1111 q 314 1125 340 1115 l 314 1111 q 367 1065 350 1092 q 388 997 383 1038 q 393 875 393 956 l 393 681 q 493 628 443 646 q 610 611 543 611 z "},"S":{"ha":1006,"x_min":56,"x_max":950,"o":"m 96 888 q 205 1099 96 1032 q 468 1167 314 1167 q 766 1091 639 1167 q 883 824 893 1015 q 867 813 883 810 l 732 838 q 717 856 715 840 q 718 890 718 868 q 655 1063 718 1000 q 468 1125 592 1125 q 300 1076 365 1125 q 235 946 235 1028 q 265 843 235 883 q 342 777 294 803 q 481 715 390 751 l 533 694 q 778 578 690 631 q 908 460 865 525 q 950 301 950 394 q 836 68 950 150 q 517 -14 722 -14 q 297 21 401 -14 q 124 134 192 56 q 56 335 56 213 q 60 396 56 365 q 76 406 63 407 l 222 381 q 239 363 240 376 q 226 260 226 297 q 298 88 226 149 q 532 28 369 28 q 738 88 665 28 q 811 256 811 147 q 772 360 811 317 q 665 438 733 403 q 456 531 596 472 q 245 638 324 585 q 131 751 167 692 q 96 888 96 811 z "},"T":{"ha":1251,"x_min":54,"x_max":1199,"o":"m 1196 903 q 1192 890 1199 893 l 1165 885 l 1164 885 q 1156 893 1158 885 q 1108 1031 1133 986 q 1035 1093 1082 1075 q 894 1111 988 1111 l 782 1111 q 734 1101 749 1111 q 716 1072 719 1090 q 713 1013 713 1053 l 713 253 q 726 115 713 158 q 778 57 740 72 q 899 42 817 42 q 907 35 907 42 l 907 7 q 899 0 907 0 l 353 0 q 344 7 344 0 l 344 35 q 353 42 344 42 q 473 57 435 42 q 525 115 511 72 q 539 253 539 158 l 539 875 q 545 998 539 958 q 579 1065 551 1038 q 671 1111 607 1092 l 671 1125 q 628 1114 644 1117 q 592 1111 613 1111 l 357 1111 q 217 1093 264 1111 q 144 1031 169 1075 q 96 893 118 986 q 86 885 93 882 l 60 890 q 56 903 54 893 l 114 1151 l 119 1176 q 125 1181 122 1181 l 140 1181 q 149 1172 149 1181 q 157 1156 149 1160 q 185 1153 165 1153 l 1054 1153 q 1090 1156 1076 1153 q 1103 1174 1103 1160 q 1110 1181 1103 1181 l 1126 1181 q 1132 1176 1131 1181 l 1138 1151 l 1196 903 z "},"U":{"ha":1308,"x_min":42,"x_max":1267,"o":"m 1260 1153 q 1267 1146 1267 1153 l 1267 1118 q 1260 1111 1267 1111 q 1167 1096 1196 1111 q 1127 1038 1138 1081 q 1117 900 1117 994 l 1117 429 q 1010 93 1117 200 q 681 -14 903 -14 q 319 94 447 -14 q 192 443 192 201 l 192 900 q 181 1038 192 994 q 142 1096 171 1081 q 49 1111 113 1111 q 42 1118 42 1111 l 42 1146 q 49 1153 42 1153 l 508 1153 q 515 1146 515 1153 l 515 1118 q 508 1111 515 1111 q 415 1096 444 1111 q 376 1038 386 1081 q 365 900 365 994 l 365 419 q 395 183 365 267 q 493 63 425 99 q 681 28 561 28 q 973 117 871 28 q 1075 419 1075 206 l 1075 900 q 1065 1038 1075 994 q 1025 1096 1054 1081 q 932 1111 996 1111 q 925 1118 925 1111 l 925 1146 q 932 1153 925 1153 l 1260 1153 z "},"Ú":{"ha":1308,"x_min":42,"x_max":1267,"o":"m 1260 1153 q 1267 1146 1267 1153 l 1267 1118 q 1260 1111 1267 1111 q 1167 1096 1196 1111 q 1127 1038 1138 1081 q 1117 900 1117 994 l 1117 429 q 1010 93 1117 200 q 681 -14 903 -14 q 319 94 447 -14 q 192 443 192 201 l 192 900 q 181 1038 192 994 q 142 1096 171 1081 q 49 1111 113 1111 q 42 1118 42 1111 l 42 1146 q 49 1153 42 1153 l 508 1153 q 515 1146 515 1153 l 515 1118 q 508 1111 515 1111 q 415 1096 444 1111 q 376 1038 386 1081 q 365 900 365 994 l 365 419 q 395 183 365 267 q 493 63 425 99 q 681 28 561 28 q 973 117 871 28 q 1075 419 1075 206 l 1075 900 q 1065 1038 1075 994 q 1025 1096 1054 1081 q 932 1111 996 1111 q 925 1118 925 1111 l 925 1146 q 932 1153 925 1153 l 1260 1153 z "},"Û":{"ha":1308,"x_min":42,"x_max":1267,"o":"m 1260 1153 q 1267 1146 1267 1153 l 1267 1118 q 1260 1111 1267 1111 q 1167 1096 1196 1111 q 1127 1038 1138 1081 q 1117 900 1117 994 l 1117 429 q 1010 93 1117 200 q 681 -14 903 -14 q 319 94 447 -14 q 192 443 192 201 l 192 900 q 181 1038 192 994 q 142 1096 171 1081 q 49 1111 113 1111 q 42 1118 42 1111 l 42 1146 q 49 1153 42 1153 l 508 1153 q 515 1146 515 1153 l 515 1118 q 508 1111 515 1111 q 415 1096 444 1111 q 376 1038 386 1081 q 365 900 365 994 l 365 419 q 395 183 365 267 q 493 63 425 99 q 681 28 561 28 q 973 117 871 28 q 1075 419 1075 206 l 1075 900 q 1065 1038 1075 994 q 1025 1096 1054 1081 q 932 1111 996 1111 q 925 1118 925 1111 l 925 1146 q 932 1153 925 1153 l 1260 1153 z "},"Ü":{"ha":1308,"x_min":42,"x_max":1267,"o":"m 1260 1153 q 1267 1146 1267 1153 l 1267 1118 q 1260 1111 1267 1111 q 1167 1096 1196 1111 q 1127 1038 1138 1081 q 1117 900 1117 994 l 1117 429 q 1010 93 1117 200 q 681 -14 903 -14 q 319 94 447 -14 q 192 443 192 201 l 192 900 q 181 1038 192 994 q 142 1096 171 1081 q 49 1111 113 1111 q 42 1118 42 1111 l 42 1146 q 49 1153 42 1153 l 508 1153 q 515 1146 515 1153 l 515 1118 q 508 1111 515 1111 q 415 1096 444 1111 q 376 1038 386 1081 q 365 900 365 994 l 365 419 q 395 183 365 267 q 493 63 425 99 q 681 28 561 28 q 973 117 871 28 q 1075 419 1075 206 l 1075 900 q 1065 1038 1075 994 q 1025 1096 1054 1081 q 932 1111 996 1111 q 925 1118 925 1111 l 925 1146 q 932 1153 925 1153 l 1260 1153 z "},"Ù":{"ha":1308,"x_min":42,"x_max":1267,"o":"m 1260 1153 q 1267 1146 1267 1153 l 1267 1118 q 1260 1111 1267 1111 q 1167 1096 1196 1111 q 1127 1038 1138 1081 q 1117 900 1117 994 l 1117 429 q 1010 93 1117 200 q 681 -14 903 -14 q 319 94 447 -14 q 192 443 192 201 l 192 900 q 181 1038 192 994 q 142 1096 171 1081 q 49 1111 113 1111 q 42 1118 42 1111 l 42 1146 q 49 1153 42 1153 l 508 1153 q 515 1146 515 1153 l 515 1118 q 508 1111 515 1111 q 415 1096 444 1111 q 376 1038 386 1081 q 365 900 365 994 l 365 419 q 395 183 365 267 q 493 63 425 99 q 681 28 561 28 q 973 117 871 28 q 1075 419 1075 206 l 1075 900 q 1065 1038 1075 994 q 1025 1096 1054 1081 q 932 1111 996 1111 q 925 1118 925 1111 l 925 1146 q 932 1153 925 1153 l 1260 1153 z "},"V":{"ha":1400,"x_min":42,"x_max":1358,"o":"m 251 917 q 191 1042 219 1001 q 131 1097 163 1083 q 47 1111 99 1111 q 42 1118 42 1111 l 42 1146 q 47 1153 42 1153 l 497 1153 q 504 1146 504 1153 l 504 1118 q 497 1111 504 1111 q 422 1102 444 1111 q 400 1065 400 1093 q 410 1013 400 1046 q 444 917 421 981 l 761 97 q 769 56 769 75 l 783 56 q 792 97 783 75 l 1104 917 q 1138 1013 1128 981 q 1149 1065 1149 1046 q 1126 1102 1149 1093 q 1051 1111 1104 1111 q 1044 1118 1044 1111 l 1044 1146 q 1051 1153 1044 1153 l 1353 1153 q 1358 1146 1358 1153 l 1358 1118 q 1353 1111 1358 1111 q 1269 1097 1301 1111 q 1209 1042 1238 1083 q 1149 917 1181 1001 l 799 0 l 606 0 l 251 917 z "},"W":{"ha":2094,"x_min":42,"x_max":2053,"o":"m 2047 1153 q 2053 1146 2053 1153 l 2053 1118 q 2047 1111 2053 1111 q 1964 1097 1996 1111 q 1903 1042 1932 1083 q 1843 917 1875 1001 l 1493 0 l 1300 0 l 1061 663 l 799 0 l 606 0 l 251 917 q 191 1042 219 1001 q 131 1097 163 1083 q 47 1111 99 1111 q 42 1118 42 1111 l 42 1146 q 47 1153 42 1153 l 499 1153 q 506 1146 506 1153 l 506 1118 q 499 1111 506 1111 q 424 1102 446 1111 q 401 1065 401 1093 q 412 1013 401 1046 q 446 917 422 981 l 761 100 q 769 58 769 78 l 783 58 q 792 100 783 78 l 1039 721 l 969 915 q 912 1042 939 1000 q 853 1097 885 1083 q 769 1111 821 1111 q 764 1118 764 1111 l 764 1146 q 769 1153 764 1153 l 1221 1153 q 1228 1146 1228 1153 l 1228 1118 q 1221 1111 1228 1111 q 1144 1101 1165 1111 q 1122 1063 1122 1092 q 1131 1010 1122 1043 q 1163 915 1140 978 l 1456 100 q 1464 58 1464 78 l 1478 58 q 1486 100 1478 78 l 1799 917 q 1833 1013 1822 981 q 1843 1065 1843 1046 q 1822 1102 1843 1093 q 1746 1111 1800 1111 q 1739 1118 1739 1111 l 1739 1146 q 1746 1153 1739 1153 l 2047 1153 z "},"Ẃ":{"ha":2094,"x_min":42,"x_max":2053,"o":"m 2047 1153 q 2053 1146 2053 1153 l 2053 1118 q 2047 1111 2053 1111 q 1964 1097 1996 1111 q 1903 1042 1932 1083 q 1843 917 1875 1001 l 1493 0 l 1300 0 l 1061 663 l 799 0 l 606 0 l 251 917 q 191 1042 219 1001 q 131 1097 163 1083 q 47 1111 99 1111 q 42 1118 42 1111 l 42 1146 q 47 1153 42 1153 l 499 1153 q 506 1146 506 1153 l 506 1118 q 499 1111 506 1111 q 424 1102 446 1111 q 401 1065 401 1093 q 412 1013 401 1046 q 446 917 422 981 l 761 100 q 769 58 769 78 l 783 58 q 792 100 783 78 l 1039 721 l 969 915 q 912 1042 939 1000 q 853 1097 885 1083 q 769 1111 821 1111 q 764 1118 764 1111 l 764 1146 q 769 1153 764 1153 l 1221 1153 q 1228 1146 1228 1153 l 1228 1118 q 1221 1111 1228 1111 q 1144 1101 1165 1111 q 1122 1063 1122 1092 q 1131 1010 1122 1043 q 1163 915 1140 978 l 1456 100 q 1464 58 1464 78 l 1478 58 q 1486 100 1478 78 l 1799 917 q 1833 1013 1822 981 q 1843 1065 1843 1046 q 1822 1102 1843 1093 q 1746 1111 1800 1111 q 1739 1118 1739 1111 l 1739 1146 q 1746 1153 1739 1153 l 2047 1153 z "},"Ŵ":{"ha":2094,"x_min":42,"x_max":2053,"o":"m 2047 1153 q 2053 1146 2053 1153 l 2053 1118 q 2047 1111 2053 1111 q 1964 1097 1996 1111 q 1903 1042 1932 1083 q 1843 917 1875 1001 l 1493 0 l 1300 0 l 1061 663 l 799 0 l 606 0 l 251 917 q 191 1042 219 1001 q 131 1097 163 1083 q 47 1111 99 1111 q 42 1118 42 1111 l 42 1146 q 47 1153 42 1153 l 499 1153 q 506 1146 506 1153 l 506 1118 q 499 1111 506 1111 q 424 1102 446 1111 q 401 1065 401 1093 q 412 1013 401 1046 q 446 917 422 981 l 761 100 q 769 58 769 78 l 783 58 q 792 100 783 78 l 1039 721 l 969 915 q 912 1042 939 1000 q 853 1097 885 1083 q 769 1111 821 1111 q 764 1118 764 1111 l 764 1146 q 769 1153 764 1153 l 1221 1153 q 1228 1146 1228 1153 l 1228 1118 q 1221 1111 1228 1111 q 1144 1101 1165 1111 q 1122 1063 1122 1092 q 1131 1010 1122 1043 q 1163 915 1140 978 l 1456 100 q 1464 58 1464 78 l 1478 58 q 1486 100 1478 78 l 1799 917 q 1833 1013 1822 981 q 1843 1065 1843 1046 q 1822 1102 1843 1093 q 1746 1111 1800 1111 q 1739 1118 1739 1111 l 1739 1146 q 1746 1153 1739 1153 l 2047 1153 z "},"Ẅ":{"ha":2094,"x_min":42,"x_max":2053,"o":"m 2047 1153 q 2053 1146 2053 1153 l 2053 1118 q 2047 1111 2053 1111 q 1964 1097 1996 1111 q 1903 1042 1932 1083 q 1843 917 1875 1001 l 1493 0 l 1300 0 l 1061 663 l 799 0 l 606 0 l 251 917 q 191 1042 219 1001 q 131 1097 163 1083 q 47 1111 99 1111 q 42 1118 42 1111 l 42 1146 q 47 1153 42 1153 l 499 1153 q 506 1146 506 1153 l 506 1118 q 499 1111 506 1111 q 424 1102 446 1111 q 401 1065 401 1093 q 412 1013 401 1046 q 446 917 422 981 l 761 100 q 769 58 769 78 l 783 58 q 792 100 783 78 l 1039 721 l 969 915 q 912 1042 939 1000 q 853 1097 885 1083 q 769 1111 821 1111 q 764 1118 764 1111 l 764 1146 q 769 1153 764 1153 l 1221 1153 q 1228 1146 1228 1153 l 1228 1118 q 1221 1111 1228 1111 q 1144 1101 1165 1111 q 1122 1063 1122 1092 q 1131 1010 1122 1043 q 1163 915 1140 978 l 1456 100 q 1464 58 1464 78 l 1478 58 q 1486 100 1478 78 l 1799 917 q 1833 1013 1822 981 q 1843 1065 1843 1046 q 1822 1102 1843 1093 q 1746 1111 1800 1111 q 1739 1118 1739 1111 l 1739 1146 q 1746 1153 1739 1153 l 2047 1153 z "},"Ẁ":{"ha":2094,"x_min":42,"x_max":2053,"o":"m 2047 1153 q 2053 1146 2053 1153 l 2053 1118 q 2047 1111 2053 1111 q 1964 1097 1996 1111 q 1903 1042 1932 1083 q 1843 917 1875 1001 l 1493 0 l 1300 0 l 1061 663 l 799 0 l 606 0 l 251 917 q 191 1042 219 1001 q 131 1097 163 1083 q 47 1111 99 1111 q 42 1118 42 1111 l 42 1146 q 47 1153 42 1153 l 499 1153 q 506 1146 506 1153 l 506 1118 q 499 1111 506 1111 q 424 1102 446 1111 q 401 1065 401 1093 q 412 1013 401 1046 q 446 917 422 981 l 761 100 q 769 58 769 78 l 783 58 q 792 100 783 78 l 1039 721 l 969 915 q 912 1042 939 1000 q 853 1097 885 1083 q 769 1111 821 1111 q 764 1118 764 1111 l 764 1146 q 769 1153 764 1153 l 1221 1153 q 1228 1146 1228 1153 l 1228 1118 q 1221 1111 1228 1111 q 1144 1101 1165 1111 q 1122 1063 1122 1092 q 1131 1010 1122 1043 q 1163 915 1140 978 l 1456 100 q 1464 58 1464 78 l 1478 58 q 1486 100 1478 78 l 1799 917 q 1833 1013 1822 981 q 1843 1065 1843 1046 q 1822 1102 1843 1093 q 1746 1111 1800 1111 q 1739 1118 1739 1111 l 1739 1146 q 1746 1153 1739 1153 l 2047 1153 z "},"X":{"ha":1292,"x_min":28,"x_max":1264,"o":"m 1258 42 q 1264 35 1264 42 l 1264 7 q 1258 0 1264 0 l 794 0 q 788 7 788 0 l 788 35 q 794 42 788 42 q 859 47 840 42 q 878 65 878 51 q 861 106 878 81 q 793 207 844 132 l 599 485 l 367 197 l 339 163 q 310 126 332 154 q 279 84 288 99 q 271 61 271 69 q 289 45 271 49 q 351 42 307 42 q 358 35 358 42 l 358 7 q 351 0 358 0 l 42 0 q 36 7 36 0 l 36 35 q 42 42 36 42 q 134 52 96 42 q 215 96 172 63 q 314 197 258 129 l 575 521 l 278 946 q 189 1053 228 1018 q 115 1100 150 1089 q 33 1111 81 1111 q 28 1118 28 1111 l 28 1146 q 33 1153 28 1153 l 497 1153 q 504 1146 504 1153 l 504 1118 q 497 1111 504 1111 q 433 1106 451 1111 q 414 1088 414 1101 q 431 1047 414 1072 q 499 946 447 1021 l 693 668 l 925 956 l 953 990 q 982 1026 960 999 q 1013 1069 1004 1054 q 1021 1092 1021 1083 q 1003 1108 1021 1104 q 940 1111 985 1111 q 933 1118 933 1111 l 933 1146 q 940 1153 933 1153 l 1250 1153 q 1256 1146 1256 1153 l 1256 1118 q 1250 1111 1256 1111 q 1158 1101 1196 1111 q 1076 1057 1119 1090 q 978 956 1033 1024 l 717 632 l 1014 207 q 1103 99 1064 135 q 1176 53 1142 64 q 1258 42 1211 42 z "},"Y":{"ha":1263,"x_min":28,"x_max":1235,"o":"m 275 935 q 194 1049 231 1011 q 122 1099 157 1088 q 33 1111 86 1111 q 28 1118 28 1111 l 28 1146 q 33 1153 28 1153 l 499 1153 q 506 1146 506 1153 l 506 1118 q 499 1111 506 1111 q 431 1105 451 1111 q 411 1082 411 1099 q 426 1035 411 1065 q 483 935 442 1004 l 689 583 q 701 542 701 561 l 715 542 q 729 583 715 558 l 936 935 q 994 1036 979 1007 q 1010 1082 1010 1065 q 990 1106 1010 1100 q 922 1111 971 1111 q 915 1118 915 1111 l 915 1146 q 922 1153 915 1153 l 1229 1153 q 1235 1146 1235 1153 l 1235 1118 q 1229 1111 1235 1111 q 1140 1099 1176 1111 q 1068 1050 1104 1088 q 986 936 1032 1013 l 719 486 l 719 253 q 730 115 719 158 q 769 57 740 72 q 863 42 799 42 q 869 35 869 42 l 869 7 q 863 0 869 0 l 403 0 q 396 7 396 0 l 396 35 q 403 42 396 42 q 496 57 467 42 q 535 115 525 72 q 546 253 546 158 l 546 469 l 275 935 z "},"Ý":{"ha":1263,"x_min":28,"x_max":1235,"o":"m 275 935 q 194 1049 231 1011 q 122 1099 157 1088 q 33 1111 86 1111 q 28 1118 28 1111 l 28 1146 q 33 1153 28 1153 l 499 1153 q 506 1146 506 1153 l 506 1118 q 499 1111 506 1111 q 431 1105 451 1111 q 411 1082 411 1099 q 426 1035 411 1065 q 483 935 442 1004 l 689 583 q 701 542 701 561 l 715 542 q 729 583 715 558 l 936 935 q 994 1036 979 1007 q 1010 1082 1010 1065 q 990 1106 1010 1100 q 922 1111 971 1111 q 915 1118 915 1111 l 915 1146 q 922 1153 915 1153 l 1229 1153 q 1235 1146 1235 1153 l 1235 1118 q 1229 1111 1235 1111 q 1140 1099 1176 1111 q 1068 1050 1104 1088 q 986 936 1032 1013 l 719 486 l 719 253 q 730 115 719 158 q 769 57 740 72 q 863 42 799 42 q 869 35 869 42 l 869 7 q 863 0 869 0 l 403 0 q 396 7 396 0 l 396 35 q 403 42 396 42 q 496 57 467 42 q 535 115 525 72 q 546 253 546 158 l 546 469 l 275 935 z "},"Ŷ":{"ha":1263,"x_min":28,"x_max":1235,"o":"m 275 935 q 194 1049 231 1011 q 122 1099 157 1088 q 33 1111 86 1111 q 28 1118 28 1111 l 28 1146 q 33 1153 28 1153 l 499 1153 q 506 1146 506 1153 l 506 1118 q 499 1111 506 1111 q 431 1105 451 1111 q 411 1082 411 1099 q 426 1035 411 1065 q 483 935 442 1004 l 689 583 q 701 542 701 561 l 715 542 q 729 583 715 558 l 936 935 q 994 1036 979 1007 q 1010 1082 1010 1065 q 990 1106 1010 1100 q 922 1111 971 1111 q 915 1118 915 1111 l 915 1146 q 922 1153 915 1153 l 1229 1153 q 1235 1146 1235 1153 l 1235 1118 q 1229 1111 1235 1111 q 1140 1099 1176 1111 q 1068 1050 1104 1088 q 986 936 1032 1013 l 719 486 l 719 253 q 730 115 719 158 q 769 57 740 72 q 863 42 799 42 q 869 35 869 42 l 869 7 q 863 0 869 0 l 403 0 q 396 7 396 0 l 396 35 q 403 42 396 42 q 496 57 467 42 q 535 115 525 72 q 546 253 546 158 l 546 469 l 275 935 z "},"Ÿ":{"ha":1263,"x_min":28,"x_max":1235,"o":"m 275 935 q 194 1049 231 1011 q 122 1099 157 1088 q 33 1111 86 1111 q 28 1118 28 1111 l 28 1146 q 33 1153 28 1153 l 499 1153 q 506 1146 506 1153 l 506 1118 q 499 1111 506 1111 q 431 1105 451 1111 q 411 1082 411 1099 q 426 1035 411 1065 q 483 935 442 1004 l 689 583 q 701 542 701 561 l 715 542 q 729 583 715 558 l 936 935 q 994 1036 979 1007 q 1010 1082 1010 1065 q 990 1106 1010 1100 q 922 1111 971 1111 q 915 1118 915 1111 l 915 1146 q 922 1153 915 1153 l 1229 1153 q 1235 1146 1235 1153 l 1235 1118 q 1229 1111 1235 1111 q 1140 1099 1176 1111 q 1068 1050 1104 1088 q 986 936 1032 1013 l 719 486 l 719 253 q 730 115 719 158 q 769 57 740 72 q 863 42 799 42 q 869 35 869 42 l 869 7 q 863 0 869 0 l 403 0 q 396 7 396 0 l 396 35 q 403 42 396 42 q 496 57 467 42 q 535 115 525 72 q 546 253 546 158 l 546 469 l 275 935 z "},"Ỳ":{"ha":1263,"x_min":28,"x_max":1235,"o":"m 275 935 q 194 1049 231 1011 q 122 1099 157 1088 q 33 1111 86 1111 q 28 1118 28 1111 l 28 1146 q 33 1153 28 1153 l 499 1153 q 506 1146 506 1153 l 506 1118 q 499 1111 506 1111 q 431 1105 451 1111 q 411 1082 411 1099 q 426 1035 411 1065 q 483 935 442 1004 l 689 583 q 701 542 701 561 l 715 542 q 729 583 715 558 l 936 935 q 994 1036 979 1007 q 1010 1082 1010 1065 q 990 1106 1010 1100 q 922 1111 971 1111 q 915 1118 915 1111 l 915 1146 q 922 1153 915 1153 l 1229 1153 q 1235 1146 1235 1153 l 1235 1118 q 1229 1111 1235 1111 q 1140 1099 1176 1111 q 1068 1050 1104 1088 q 986 936 1032 1013 l 719 486 l 719 253 q 730 115 719 158 q 769 57 740 72 q 863 42 799 42 q 869 35 869 42 l 869 7 q 863 0 869 0 l 403 0 q 396 7 396 0 l 396 35 q 403 42 396 42 q 496 57 467 42 q 535 115 525 72 q 546 253 546 158 l 546 469 l 275 935 z "},"Z":{"ha":1125,"x_min":56,"x_max":1069,"o":"m 324 100 q 294 61 304 74 q 269 42 283 49 l 269 28 q 333 43 294 43 l 789 42 q 928 54 882 42 q 994 97 974 67 q 1024 190 1014 126 q 1032 196 1026 196 l 1060 190 q 1065 183 1065 190 l 1038 14 l 1035 0 l 56 0 l 56 42 l 801 1053 q 832 1093 822 1082 q 856 1111 842 1104 l 856 1125 q 792 1110 831 1110 l 336 1111 q 197 1099 243 1111 q 131 1056 151 1086 q 101 963 111 1026 q 93 957 99 957 l 65 963 q 60 969 60 963 l 88 1139 l 90 1153 l 1069 1153 l 1069 1111 l 324 100 z "},"a":{"ha":1035,"x_min":69,"x_max":1008,"o":"m 861 253 q 867 134 861 174 q 888 77 872 94 q 938 60 904 60 q 994 67 957 60 q 1003 60 1000 67 l 1007 33 q 1001 25 1008 28 l 833 -4 q 756 -14 782 -14 q 710 1 726 -14 q 693 42 693 17 q 698 65 693 54 q 715 94 703 76 l 701 94 q 570 8 629 31 q 433 -14 511 -14 q 235 41 318 -14 q 111 186 153 96 q 69 382 69 276 q 111 578 69 488 q 235 723 153 668 q 433 778 318 778 q 570 756 511 778 q 701 669 629 733 l 715 669 q 784 690 760 669 q 818 758 808 711 q 825 764 821 764 l 854 764 q 861 757 861 764 l 861 253 m 250 382 q 307 113 250 199 q 467 28 364 28 q 647 113 576 28 q 718 378 718 199 q 650 649 718 563 q 469 736 582 736 q 308 651 365 736 q 250 382 250 567 z "},"á":{"ha":1035,"x_min":69,"x_max":1008,"o":"m 861 253 q 867 134 861 174 q 888 77 872 94 q 938 60 904 60 q 994 67 957 60 q 1003 60 1000 67 l 1007 33 q 1001 25 1008 28 l 833 -4 q 756 -14 782 -14 q 710 1 726 -14 q 693 42 693 17 q 698 65 693 54 q 715 94 703 76 l 701 94 q 570 8 629 31 q 433 -14 511 -14 q 235 41 318 -14 q 111 186 153 96 q 69 382 69 276 q 111 578 69 488 q 235 723 153 668 q 433 778 318 778 q 570 756 511 778 q 701 669 629 733 l 715 669 q 784 690 760 669 q 818 758 808 711 q 825 764 821 764 l 854 764 q 861 757 861 764 l 861 253 m 250 382 q 307 113 250 199 q 467 28 364 28 q 647 113 576 28 q 718 378 718 199 q 650 649 718 563 q 469 736 582 736 q 308 651 365 736 q 250 382 250 567 z "},"â":{"ha":1035,"x_min":69,"x_max":1008,"o":"m 861 253 q 867 134 861 174 q 888 77 872 94 q 938 60 904 60 q 994 67 957 60 q 1003 60 1000 67 l 1007 33 q 1001 25 1008 28 l 833 -4 q 756 -14 782 -14 q 710 1 726 -14 q 693 42 693 17 q 698 65 693 54 q 715 94 703 76 l 701 94 q 570 8 629 31 q 433 -14 511 -14 q 235 41 318 -14 q 111 186 153 96 q 69 382 69 276 q 111 578 69 488 q 235 723 153 668 q 433 778 318 778 q 570 756 511 778 q 701 669 629 733 l 715 669 q 784 690 760 669 q 818 758 808 711 q 825 764 821 764 l 854 764 q 861 757 861 764 l 861 253 m 250 382 q 307 113 250 199 q 467 28 364 28 q 647 113 576 28 q 718 378 718 199 q 650 649 718 563 q 469 736 582 736 q 308 651 365 736 q 250 382 250 567 z "},"ä":{"ha":1035,"x_min":69,"x_max":1008,"o":"m 861 253 q 867 134 861 174 q 888 77 872 94 q 938 60 904 60 q 994 67 957 60 q 1003 60 1000 67 l 1007 33 q 1001 25 1008 28 l 833 -4 q 756 -14 782 -14 q 710 1 726 -14 q 693 42 693 17 q 698 65 693 54 q 715 94 703 76 l 701 94 q 570 8 629 31 q 433 -14 511 -14 q 235 41 318 -14 q 111 186 153 96 q 69 382 69 276 q 111 578 69 488 q 235 723 153 668 q 433 778 318 778 q 570 756 511 778 q 701 669 629 733 l 715 669 q 784 690 760 669 q 818 758 808 711 q 825 764 821 764 l 854 764 q 861 757 861 764 l 861 253 m 250 382 q 307 113 250 199 q 467 28 364 28 q 647 113 576 28 q 718 378 718 199 q 650 649 718 563 q 469 736 582 736 q 308 651 365 736 q 250 382 250 567 z "},"à":{"ha":1035,"x_min":69,"x_max":1008,"o":"m 861 253 q 867 134 861 174 q 888 77 872 94 q 938 60 904 60 q 994 67 957 60 q 1003 60 1000 67 l 1007 33 q 1001 25 1008 28 l 833 -4 q 756 -14 782 -14 q 710 1 726 -14 q 693 42 693 17 q 698 65 693 54 q 715 94 703 76 l 701 94 q 570 8 629 31 q 433 -14 511 -14 q 235 41 318 -14 q 111 186 153 96 q 69 382 69 276 q 111 578 69 488 q 235 723 153 668 q 433 778 318 778 q 570 756 511 778 q 701 669 629 733 l 715 669 q 784 690 760 669 q 818 758 808 711 q 825 764 821 764 l 854 764 q 861 757 861 764 l 861 253 m 250 382 q 307 113 250 199 q 467 28 364 28 q 647 113 576 28 q 718 378 718 199 q 650 649 718 563 q 469 736 582 736 q 308 651 365 736 q 250 382 250 567 z "},"ã":{"ha":1035,"x_min":69,"x_max":1008,"o":"m 861 253 q 867 134 861 174 q 888 77 872 94 q 938 60 904 60 q 994 67 957 60 q 1003 60 1000 67 l 1007 33 q 1001 25 1008 28 l 833 -4 q 756 -14 782 -14 q 710 1 726 -14 q 693 42 693 17 q 698 65 693 54 q 715 94 703 76 l 701 94 q 570 8 629 31 q 433 -14 511 -14 q 235 41 318 -14 q 111 186 153 96 q 69 382 69 276 q 111 578 69 488 q 235 723 153 668 q 433 778 318 778 q 570 756 511 778 q 701 669 629 733 l 715 669 q 784 690 760 669 q 818 758 808 711 q 825 764 821 764 l 854 764 q 861 757 861 764 l 861 253 m 250 382 q 307 113 250 199 q 467 28 364 28 q 647 113 576 28 q 718 378 718 199 q 650 649 718 563 q 469 736 582 736 q 308 651 365 736 q 250 382 250 567 z "},"b":{"ha":1008,"x_min":-1,"x_max":939,"o":"m 147 942 q 141 1064 147 1024 q 116 1122 135 1104 q 58 1139 97 1139 q 11 1135 39 1139 q 3 1140 4 1135 l 0 1168 q 6 1176 -1 1174 l 254 1208 q 303 1196 286 1213 q 321 1153 321 1179 l 321 764 q 315 711 321 729 q 293 669 310 693 l 307 669 q 438 756 379 733 q 575 778 497 778 q 773 723 690 778 q 897 578 856 668 q 939 382 939 488 q 895 185 939 275 q 760 41 851 96 q 533 -14 668 -14 q 257 76 367 -14 q 147 396 147 165 l 147 942 m 758 382 q 701 651 758 567 q 539 736 643 736 q 358 649 426 736 q 290 378 290 563 q 361 113 290 199 q 542 28 432 28 q 701 113 644 28 q 758 382 758 199 z "},"c":{"ha":944,"x_min":69,"x_max":878,"o":"m 69 396 q 117 592 69 506 q 256 728 165 679 q 467 778 346 778 q 753 677 654 778 q 840 404 851 576 q 838 399 840 401 q 832 397 835 396 l 665 429 q 660 436 660 432 q 616 662 667 588 q 467 736 565 736 q 298 649 346 736 q 250 396 250 563 q 321 113 250 193 q 517 33 392 33 q 719 99 644 33 q 833 246 794 164 q 842 251 835 251 l 869 251 q 875 243 878 251 q 744 68 838 150 q 483 -14 651 -14 q 251 42 344 -14 q 114 190 158 97 q 69 396 69 282 z "},"ç":{"ha":944,"x_min":69,"x_max":878,"o":"m 869 251 q 875 243 878 251 q 751 74 839 154 q 507 -14 664 -7 l 450 -89 l 485 -89 q 595 -112 560 -89 q 631 -190 631 -136 q 578 -302 631 -261 q 442 -343 525 -343 q 319 -322 385 -343 q 314 -315 314 -321 l 314 -247 q 324 -240 314 -237 q 449 -265 399 -265 q 522 -244 497 -265 q 547 -187 547 -224 q 522 -142 547 -154 q 433 -131 497 -131 l 360 -131 l 440 -12 q 233 53 317 -4 q 110 199 150 110 q 69 396 69 289 q 117 592 69 506 q 256 728 165 679 q 467 778 346 778 q 753 677 654 778 q 840 404 851 576 q 838 399 840 401 q 832 397 835 396 l 665 429 q 660 436 660 432 q 616 662 667 588 q 467 736 565 736 q 298 649 346 736 q 250 396 250 563 q 321 113 250 193 q 517 33 392 33 q 719 99 644 33 q 833 246 794 164 q 842 251 835 251 l 869 251 z "},"d":{"ha":1053,"x_min":69,"x_max":1011,"o":"m 861 253 q 872 115 861 158 q 911 57 882 72 q 1004 42 940 42 q 1011 35 1011 42 l 1011 7 q 1004 0 1011 0 l 756 0 q 703 9 719 0 q 688 42 688 18 q 693 66 688 54 q 715 94 699 78 l 701 94 q 570 8 629 31 q 433 -14 511 -14 q 235 41 318 -14 q 111 186 153 96 q 69 382 69 276 q 111 578 69 488 q 235 723 153 668 q 433 778 318 778 q 570 756 511 778 q 701 669 629 733 l 715 669 q 693 711 699 693 q 688 764 688 729 l 688 942 q 681 1064 688 1024 q 656 1122 675 1104 q 599 1139 638 1139 q 551 1135 579 1139 q 543 1140 546 1133 l 540 1168 q 546 1176 539 1174 l 793 1208 q 810 1210 799 1210 q 849 1197 836 1210 q 861 1153 861 1183 l 861 253 m 250 382 q 307 113 250 199 q 467 28 364 28 q 647 113 576 28 q 718 378 718 199 q 650 649 718 563 q 469 736 582 736 q 308 651 365 736 q 250 382 250 567 z "},"e":{"ha":903,"x_min":56,"x_max":850,"o":"m 842 293 q 847 285 850 293 q 723 74 815 163 q 440 -14 631 -14 q 151 54 246 -14 q 56 233 56 122 q 123 388 56 329 q 294 471 190 446 l 285 469 l 285 483 q 249 479 269 479 q 153 509 196 479 q 111 606 111 539 q 210 734 111 690 q 463 778 310 778 q 637 754 556 778 q 769 681 718 731 q 819 560 819 632 q 787 474 819 500 q 671 449 754 449 l 467 449 q 290 400 343 449 q 236 247 236 351 q 297 100 236 144 q 468 56 357 56 q 693 120 610 56 q 806 288 776 185 q 814 293 807 293 l 842 293 m 292 603 q 308 531 292 563 q 349 482 324 499 q 458 490 407 490 l 639 490 q 625 624 639 572 q 572 706 611 676 q 456 736 532 736 q 330 699 368 736 q 292 603 292 663 z "},"é":{"ha":903,"x_min":56,"x_max":850,"o":"m 842 293 q 847 285 850 293 q 723 74 815 163 q 440 -14 631 -14 q 151 54 246 -14 q 56 233 56 122 q 123 388 56 329 q 294 471 190 446 l 285 469 l 285 483 q 249 479 269 479 q 153 509 196 479 q 111 606 111 539 q 210 734 111 690 q 463 778 310 778 q 637 754 556 778 q 769 681 718 731 q 819 560 819 632 q 787 474 819 500 q 671 449 754 449 l 467 449 q 290 400 343 449 q 236 247 236 351 q 297 100 236 144 q 468 56 357 56 q 693 120 610 56 q 806 288 776 185 q 814 293 807 293 l 842 293 m 292 603 q 308 531 292 563 q 349 482 324 499 q 458 490 407 490 l 639 490 q 625 624 639 572 q 572 706 611 676 q 456 736 532 736 q 330 699 368 736 q 292 603 292 663 z "},"ê":{"ha":903,"x_min":56,"x_max":850,"o":"m 842 293 q 847 285 850 293 q 723 74 815 163 q 440 -14 631 -14 q 151 54 246 -14 q 56 233 56 122 q 123 388 56 329 q 294 471 190 446 l 285 469 l 285 483 q 249 479 269 479 q 153 509 196 479 q 111 606 111 539 q 210 734 111 690 q 463 778 310 778 q 637 754 556 778 q 769 681 718 731 q 819 560 819 632 q 787 474 819 500 q 671 449 754 449 l 467 449 q 290 400 343 449 q 236 247 236 351 q 297 100 236 144 q 468 56 357 56 q 693 120 610 56 q 806 288 776 185 q 814 293 807 293 l 842 293 m 292 603 q 308 531 292 563 q 349 482 324 499 q 458 490 407 490 l 639 490 q 625 624 639 572 q 572 706 611 676 q 456 736 532 736 q 330 699 368 736 q 292 603 292 663 z "},"ë":{"ha":903,"x_min":56,"x_max":850,"o":"m 842 293 q 847 285 850 293 q 723 74 815 163 q 440 -14 631 -14 q 151 54 246 -14 q 56 233 56 122 q 123 388 56 329 q 294 471 190 446 l 285 469 l 285 483 q 249 479 269 479 q 153 509 196 479 q 111 606 111 539 q 210 734 111 690 q 463 778 310 778 q 637 754 556 778 q 769 681 718 731 q 819 560 819 632 q 787 474 819 500 q 671 449 754 449 l 467 449 q 290 400 343 449 q 236 247 236 351 q 297 100 236 144 q 468 56 357 56 q 693 120 610 56 q 806 288 776 185 q 814 293 807 293 l 842 293 m 292 603 q 308 531 292 563 q 349 482 324 499 q 458 490 407 490 l 639 490 q 625 624 639 572 q 572 706 611 676 q 456 736 532 736 q 330 699 368 736 q 292 603 292 663 z "},"è":{"ha":903,"x_min":56,"x_max":850,"o":"m 842 293 q 847 285 850 293 q 723 74 815 163 q 440 -14 631 -14 q 151 54 246 -14 q 56 233 56 122 q 123 388 56 329 q 294 471 190 446 l 285 469 l 285 483 q 249 479 269 479 q 153 509 196 479 q 111 606 111 539 q 210 734 111 690 q 463 778 310 778 q 637 754 556 778 q 769 681 718 731 q 819 560 819 632 q 787 474 819 500 q 671 449 754 449 l 467 449 q 290 400 343 449 q 236 247 236 351 q 297 100 236 144 q 468 56 357 56 q 693 120 610 56 q 806 288 776 185 q 814 293 807 293 l 842 293 m 292 603 q 308 531 292 563 q 349 482 324 499 q 458 490 407 490 l 639 490 q 625 624 639 572 q 572 706 611 676 q 456 736 532 736 q 330 699 368 736 q 292 603 292 663 z "},"f":{"ha":611,"x_min":56,"x_max":592,"o":"m 301 1208 q 504 1143 417 1208 q 582 915 592 1078 q 579 910 582 913 q 574 907 576 907 l 408 921 q 403 923 406 921 q 401 928 401 925 q 404 993 404 975 q 378 1127 404 1088 q 297 1167 351 1167 q 207 1118 240 1167 q 174 1000 174 1069 q 208 874 174 928 q 302 792 243 821 q 435 764 361 764 l 522 764 q 529 757 529 764 l 529 729 q 522 722 529 722 l 379 722 l 379 253 q 390 115 379 158 q 429 57 400 72 q 522 42 458 42 q 529 35 529 42 l 529 7 q 522 0 529 0 l 63 0 q 56 7 56 0 l 56 35 q 63 42 56 42 q 156 57 126 42 q 195 115 185 72 q 206 253 206 158 l 206 722 l 63 722 q 56 729 56 722 l 56 757 q 63 764 56 764 l 154 764 q 214 762 190 764 q 261 750 238 760 l 261 764 q 128 853 181 790 q 76 1006 76 915 q 138 1152 76 1096 q 301 1208 200 1208 z "},"g":{"ha":924,"x_min":56,"x_max":868,"o":"m 861 764 q 868 757 868 764 l 868 701 q 861 696 868 693 q 728 711 779 711 q 696 710 706 711 q 813 458 813 628 q 719 226 813 313 q 435 139 626 139 q 311 135 350 139 q 250 112 272 131 q 228 51 228 93 l 529 51 q 735 -1 658 51 q 813 -171 813 -54 q 754 -323 813 -265 q 610 -406 696 -381 q 435 -431 524 -431 q 182 -372 290 -431 q 74 -181 74 -314 q 79 -122 74 -150 q 94 -110 82 -110 l 247 -110 q 258 -126 263 -110 q 246 -226 246 -185 q 296 -353 246 -318 q 435 -389 346 -389 q 583 -342 533 -389 q 632 -185 632 -294 q 565 -35 632 -81 q 388 10 499 10 l 103 10 q 85 24 85 10 q 144 138 85 96 q 307 181 204 181 l 307 194 q 120 276 185 204 q 56 472 56 349 q 149 693 56 608 q 435 778 243 778 q 636 743 554 778 q 737 760 686 757 q 861 764 788 764 m 435 181 q 583 247 535 181 q 632 458 632 314 q 583 669 632 603 q 435 736 535 736 q 284 669 335 736 q 233 458 233 601 q 283 248 233 315 q 435 181 333 181 z "},"h":{"ha":1099,"x_min":42,"x_max":1071,"o":"m 747 535 q 738 649 747 607 q 703 714 729 692 q 626 736 676 736 q 365 628 482 736 l 365 253 q 374 115 365 158 q 406 57 382 72 q 479 42 429 42 q 485 35 485 42 l 485 7 q 479 0 485 0 l 49 0 q 42 7 42 0 l 42 35 q 49 42 42 42 q 142 57 113 42 q 181 115 171 72 q 192 253 192 158 l 192 942 q 185 1064 192 1024 q 160 1122 179 1104 q 103 1139 142 1139 q 56 1135 83 1139 q 47 1140 49 1135 l 44 1168 q 50 1176 43 1174 l 299 1208 q 315 1210 304 1210 q 353 1197 342 1210 q 365 1153 365 1183 l 365 764 q 360 711 365 729 q 338 669 356 693 l 351 669 q 487 750 421 722 q 640 778 553 778 q 807 745 746 778 q 894 645 868 713 q 921 465 921 578 l 921 253 q 931 115 921 158 q 971 57 942 72 q 1064 42 1000 42 q 1071 35 1071 42 l 1071 7 q 1064 0 1071 0 l 633 0 q 628 7 628 0 l 628 35 q 633 42 628 42 q 707 57 683 42 q 739 115 731 72 q 747 253 747 158 l 747 535 z "},"i":{"ha":585,"x_min":56,"x_max":529,"o":"m 292 924 q 217 951 244 924 q 190 1024 190 979 q 217 1095 190 1067 q 292 1124 244 1124 q 365 1095 338 1124 q 392 1024 392 1067 q 365 951 392 979 q 292 924 339 924 m 379 253 q 390 115 379 158 q 429 57 400 72 q 522 42 458 42 q 529 35 529 42 l 529 7 q 522 0 529 0 l 63 0 q 56 7 56 0 l 56 35 q 63 42 56 42 q 156 57 126 42 q 195 115 185 72 q 206 253 206 158 l 206 511 q 199 633 206 593 q 174 691 193 674 q 117 708 156 708 q 69 704 96 708 q 61 710 64 703 l 58 738 q 64 746 57 743 l 311 778 q 328 779 317 779 q 379 736 379 779 l 379 253 z "},"ı":{"ha":585,"x_min":56,"x_max":529,"o":"m 379 253 q 390 115 379 158 q 429 57 400 72 q 522 42 458 42 q 529 35 529 42 l 529 7 q 522 0 529 0 l 63 0 q 56 7 56 0 l 56 35 q 63 42 56 42 q 156 57 126 42 q 195 115 185 72 q 206 253 206 158 l 206 511 q 199 633 206 593 q 174 691 193 674 q 117 708 156 708 q 69 704 96 708 q 61 710 64 703 l 58 738 q 64 746 57 743 l 311 778 q 328 779 317 779 q 379 736 379 779 l 379 253 z "},"í":{"ha":585,"x_min":8,"x_max":529,"o":"m 379 253 q 390 115 379 158 q 429 57 400 72 q 522 42 458 42 q 529 35 529 42 l 529 7 q 522 0 529 0 l 63 0 q 56 7 56 0 l 56 35 q 63 42 56 42 q 156 57 126 42 q 195 115 185 72 q 206 253 206 158 l 206 511 q 199 633 206 593 q 174 691 193 674 q 117 708 156 708 q 69 704 96 708 q 61 710 64 703 l 58 738 q 64 746 57 743 l 311 778 q 328 779 317 779 q 379 736 379 779 l 379 253 z "},"î":{"ha":585,"x_min":-22,"x_max":529,"o":"m 379 253 q 390 115 379 158 q 429 57 400 72 q 522 42 458 42 q 529 35 529 42 l 529 7 q 522 0 529 0 l 63 0 q 56 7 56 0 l 56 35 q 63 42 56 42 q 156 57 126 42 q 195 115 185 72 q 206 253 206 158 l 206 511 q 199 633 206 593 q 174 691 193 674 q 117 708 156 708 q 69 704 96 708 q 61 710 64 703 l 58 738 q 64 746 57 743 l 311 778 q 328 779 317 779 q 379 736 379 779 l 379 253 z "},"ï":{"ha":585,"x_min":29,"x_max":529,"o":"m 379 253 q 390 115 379 158 q 429 57 400 72 q 522 42 458 42 q 529 35 529 42 l 529 7 q 522 0 529 0 l 63 0 q 56 7 56 0 l 56 35 q 63 42 56 42 q 156 57 126 42 q 195 115 185 72 q 206 253 206 158 l 206 511 q 199 633 206 593 q 174 691 193 674 q 117 708 156 708 q 69 704 96 708 q 61 710 64 703 l 58 738 q 64 746 57 743 l 311 778 q 328 779 317 779 q 379 736 379 779 l 379 253 z "},"ì":{"ha":585,"x_min":-1,"x_max":529,"o":"m 379 253 q 390 115 379 158 q 429 57 400 72 q 522 42 458 42 q 529 35 529 42 l 529 7 q 522 0 529 0 l 63 0 q 56 7 56 0 l 56 35 q 63 42 56 42 q 156 57 126 42 q 195 115 185 72 q 206 253 206 158 l 206 511 q 199 633 206 593 q 174 691 193 674 q 117 708 156 708 q 69 704 96 708 q 61 710 64 703 l 58 738 q 64 746 57 743 l 311 778 q 328 779 317 779 q 379 736 379 779 l 379 253 z "},"j":{"ha":464,"x_min":14,"x_max":353,"o":"m 253 924 q 178 951 206 924 q 151 1024 151 979 q 178 1095 151 1067 q 253 1124 206 1124 q 326 1095 299 1124 q 353 1024 353 1067 q 326 951 353 979 q 253 924 300 924 m 340 0 q 21 -415 340 -354 q 16 -414 18 -417 q 14 -408 14 -411 l 14 -381 q 19 -374 14 -375 q 127 -276 88 -349 q 167 -56 167 -204 l 167 511 q 160 633 167 593 q 135 691 154 674 q 78 708 117 708 q 31 704 57 708 q 22 710 25 703 l 19 738 q 25 746 18 743 l 272 778 q 289 779 278 779 q 340 736 340 779 l 340 0 z "},"k":{"ha":1174,"x_min":42,"x_max":1160,"o":"m 1154 42 q 1160 35 1160 42 l 1160 7 q 1154 0 1160 0 l 671 0 q 663 7 663 0 l 663 35 q 671 42 663 42 q 745 47 724 42 q 767 69 767 53 q 751 111 767 85 q 688 210 735 138 l 539 433 l 544 439 l 365 275 l 365 253 q 376 115 365 158 q 415 57 386 72 q 508 42 444 42 q 515 35 515 42 l 515 7 q 508 0 515 0 l 49 0 q 42 7 42 0 l 42 35 q 49 42 42 42 q 142 57 113 42 q 181 115 171 72 q 192 253 192 158 l 192 942 q 185 1064 192 1024 q 160 1122 179 1104 q 103 1139 142 1139 q 56 1135 83 1139 q 47 1140 50 1133 l 44 1168 q 50 1176 43 1174 l 297 1208 q 314 1210 303 1210 q 353 1197 340 1210 q 365 1153 365 1183 l 365 413 q 360 360 365 378 q 338 321 356 342 l 351 321 l 657 594 l 688 622 q 749 680 732 663 q 767 706 767 697 q 744 719 767 717 q 658 722 721 722 q 650 729 650 722 l 650 757 q 658 764 650 764 l 1017 764 q 1022 757 1022 764 l 1022 729 q 1017 722 1022 722 q 918 715 958 722 q 828 681 878 708 q 715 594 779 653 l 581 471 l 581 458 q 635 463 610 463 q 729 438 689 463 q 810 354 769 414 l 903 213 q 990 101 951 138 q 1065 53 1028 65 q 1154 42 1101 42 z "},"l":{"ha":557,"x_min":42,"x_max":515,"o":"m 365 253 q 376 115 365 158 q 415 57 386 72 q 508 42 444 42 q 515 35 515 42 l 515 7 q 508 0 515 0 l 49 0 q 42 7 42 0 l 42 35 q 49 42 42 42 q 142 57 113 42 q 181 115 171 72 q 192 253 192 158 l 192 942 q 185 1064 192 1024 q 160 1122 179 1104 q 103 1139 142 1139 q 56 1135 83 1139 q 47 1140 50 1133 l 44 1168 q 50 1176 43 1174 l 297 1208 q 314 1210 303 1210 q 353 1197 340 1210 q 365 1153 365 1183 l 365 253 z "},"m":{"ha":1667,"x_min":56,"x_max":1611,"o":"m 1604 42 q 1611 35 1611 42 l 1611 7 q 1604 0 1611 0 l 1174 0 q 1168 7 1168 0 l 1168 35 q 1174 42 1168 42 q 1247 57 1224 42 q 1279 115 1271 72 q 1288 253 1288 158 l 1288 535 q 1281 653 1288 614 q 1251 715 1275 693 q 1174 736 1226 736 q 1028 709 1092 736 q 903 636 965 682 q 921 465 921 569 l 921 253 q 929 115 921 158 q 961 57 938 72 q 1035 42 985 42 q 1040 35 1040 42 l 1040 7 q 1035 0 1040 0 l 633 0 q 628 7 628 0 l 628 35 q 633 42 628 42 q 707 57 683 42 q 739 115 731 72 q 747 253 747 158 l 747 535 q 742 653 747 614 q 715 715 736 693 q 647 736 694 736 q 509 707 571 736 q 379 628 447 678 l 379 253 q 388 115 379 158 q 419 57 396 72 q 493 42 443 42 q 499 35 499 42 l 499 7 q 493 0 499 0 l 63 0 q 56 7 56 0 l 56 35 q 63 42 56 42 q 156 57 126 42 q 195 115 185 72 q 206 253 206 158 l 206 511 q 200 631 206 592 q 178 688 194 671 q 125 706 161 706 q 71 700 113 706 q 63 706 65 699 l 58 733 q 64 742 58 740 l 233 768 q 332 778 294 778 q 386 736 386 778 q 358 669 386 707 l 372 669 q 519 749 446 721 q 675 778 592 778 q 811 752 760 778 q 889 672 863 726 q 1035 750 961 722 q 1201 778 1110 778 q 1359 746 1303 778 q 1438 647 1415 714 q 1461 465 1461 579 l 1461 253 q 1472 115 1461 158 q 1511 57 1482 72 q 1604 42 1540 42 z "},"n":{"ha":1154,"x_min":56,"x_max":1099,"o":"m 775 535 q 766 649 775 607 q 731 714 757 692 q 654 736 704 736 q 510 707 574 736 q 379 628 447 678 l 379 253 q 388 115 379 158 q 419 57 396 72 q 493 42 443 42 q 499 35 499 42 l 499 7 q 493 0 499 0 l 63 0 q 56 7 56 0 l 56 35 q 63 42 56 42 q 156 57 126 42 q 195 115 185 72 q 206 253 206 158 l 206 511 q 200 631 206 592 q 178 688 194 671 q 125 706 161 706 q 71 700 113 706 q 63 706 65 699 l 58 733 q 64 742 58 740 l 233 768 q 332 778 294 778 q 386 736 386 778 q 358 669 386 707 l 372 669 q 520 749 446 721 q 682 778 594 778 q 889 705 829 778 q 949 465 949 632 l 949 253 q 959 115 949 158 q 999 57 969 72 q 1092 42 1028 42 q 1099 35 1099 42 l 1099 7 q 1092 0 1099 0 l 661 0 q 656 7 656 0 l 656 35 q 661 42 656 42 q 735 57 711 42 q 767 115 758 72 q 775 253 775 158 l 775 535 z "},"ñ":{"ha":1154,"x_min":56,"x_max":1099,"o":"m 775 535 q 766 649 775 607 q 731 714 757 692 q 654 736 704 736 q 510 707 574 736 q 379 628 447 678 l 379 253 q 388 115 379 158 q 419 57 396 72 q 493 42 443 42 q 499 35 499 42 l 499 7 q 493 0 499 0 l 63 0 q 56 7 56 0 l 56 35 q 63 42 56 42 q 156 57 126 42 q 195 115 185 72 q 206 253 206 158 l 206 511 q 200 631 206 592 q 178 688 194 671 q 125 706 161 706 q 71 700 113 706 q 63 706 65 699 l 58 733 q 64 742 58 740 l 233 768 q 332 778 294 778 q 386 736 386 778 q 358 669 386 707 l 372 669 q 520 749 446 721 q 682 778 594 778 q 889 705 829 778 q 949 465 949 632 l 949 253 q 959 115 949 158 q 999 57 969 72 q 1092 42 1028 42 q 1099 35 1099 42 l 1099 7 q 1092 0 1099 0 l 661 0 q 656 7 656 0 l 656 35 q 661 42 656 42 q 735 57 711 42 q 767 115 758 72 q 775 253 775 158 l 775 535 z "},"o":{"ha":951,"x_min":69,"x_max":882,"o":"m 476 -14 q 256 41 347 -14 q 117 186 164 96 q 69 382 69 276 q 117 578 69 488 q 256 723 164 668 q 476 778 347 778 q 697 723 606 778 q 835 578 789 668 q 882 382 882 488 q 835 186 882 276 q 697 41 789 96 q 476 -14 606 -14 m 476 28 q 649 113 596 28 q 701 382 701 199 q 649 651 701 565 q 476 736 596 736 q 304 651 358 736 q 249 382 250 565 q 303 113 250 199 q 476 28 357 28 z "},"ó":{"ha":951,"x_min":69,"x_max":882,"o":"m 476 -14 q 256 41 347 -14 q 117 186 164 96 q 69 382 69 276 q 117 578 69 488 q 256 723 164 668 q 476 778 347 778 q 697 723 606 778 q 835 578 789 668 q 882 382 882 488 q 835 186 882 276 q 697 41 789 96 q 476 -14 606 -14 m 476 28 q 649 113 596 28 q 701 382 701 199 q 649 651 701 565 q 476 736 596 736 q 304 651 358 736 q 249 382 250 565 q 303 113 250 199 q 476 28 357 28 z "},"ô":{"ha":951,"x_min":69,"x_max":882,"o":"m 476 -14 q 256 41 347 -14 q 117 186 164 96 q 69 382 69 276 q 117 578 69 488 q 256 723 164 668 q 476 778 347 778 q 697 723 606 778 q 835 578 789 668 q 882 382 882 488 q 835 186 882 276 q 697 41 789 96 q 476 -14 606 -14 m 476 28 q 649 113 596 28 q 701 382 701 199 q 649 651 701 565 q 476 736 596 736 q 304 651 358 736 q 249 382 250 565 q 303 113 250 199 q 476 28 357 28 z "},"ö":{"ha":951,"x_min":69,"x_max":882,"o":"m 476 -14 q 256 41 347 -14 q 117 186 164 96 q 69 382 69 276 q 117 578 69 488 q 256 723 164 668 q 476 778 347 778 q 697 723 606 778 q 835 578 789 668 q 882 382 882 488 q 835 186 882 276 q 697 41 789 96 q 476 -14 606 -14 m 476 28 q 649 113 596 28 q 701 382 701 199 q 649 651 701 565 q 476 736 596 736 q 304 651 358 736 q 249 382 250 565 q 303 113 250 199 q 476 28 357 28 z "},"ò":{"ha":951,"x_min":69,"x_max":882,"o":"m 476 -14 q 256 41 347 -14 q 117 186 164 96 q 69 382 69 276 q 117 578 69 488 q 256 723 164 668 q 476 778 347 778 q 697 723 606 778 q 835 578 789 668 q 882 382 882 488 q 835 186 882 276 q 697 41 789 96 q 476 -14 606 -14 m 476 28 q 649 113 596 28 q 701 382 701 199 q 649 651 701 565 q 476 736 596 736 q 304 651 358 736 q 249 382 250 565 q 303 113 250 199 q 476 28 357 28 z "},"õ":{"ha":951,"x_min":69,"x_max":882,"o":"m 476 -14 q 256 41 347 -14 q 117 186 164 96 q 69 382 69 276 q 117 578 69 488 q 256 723 164 668 q 476 778 347 778 q 697 723 606 778 q 835 578 789 668 q 882 382 882 488 q 835 186 882 276 q 697 41 789 96 q 476 -14 606 -14 m 476 28 q 649 113 596 28 q 701 382 701 199 q 649 651 701 565 q 476 736 596 736 q 304 651 358 736 q 249 382 250 565 q 303 113 250 199 q 476 28 357 28 z "},"œ":{"ha":1572,"x_min":69,"x_max":1519,"o":"m 1511 251 q 1517 243 1519 251 q 1392 66 1478 146 q 1139 -14 1306 -14 q 939 26 1024 -14 q 803 135 854 65 q 667 26 750 65 q 476 -14 585 -14 q 256 41 347 -14 q 117 186 164 96 q 69 382 69 276 q 117 578 69 488 q 256 723 164 668 q 476 778 347 778 q 665 740 583 778 q 799 635 746 703 q 929 740 849 703 q 1115 778 1010 778 q 1300 741 1214 778 q 1441 618 1386 704 q 1496 396 1496 532 l 906 396 q 976 113 906 193 q 1172 33 1047 33 q 1367 96 1300 33 q 1475 246 1433 158 q 1483 251 1476 251 l 1511 251 m 476 28 q 649 113 596 28 q 701 382 701 199 q 649 651 701 565 q 476 736 596 736 q 304 651 358 736 q 249 382 250 565 q 303 113 250 199 q 476 28 357 28 m 1115 736 q 955 665 1004 736 q 906 438 906 594 l 1315 438 q 1262 663 1313 590 q 1115 736 1211 736 z "},"p":{"ha":1053,"x_min":42,"x_max":983,"o":"m 49 -417 q 42 -410 42 -417 l 42 -382 q 49 -375 42 -375 q 142 -360 113 -375 q 181 -301 171 -344 q 192 -164 192 -258 l 192 511 q 185 633 192 593 q 160 691 179 674 q 103 708 142 708 q 56 704 82 708 q 47 710 50 703 l 44 738 q 50 746 43 743 l 297 778 q 314 779 303 779 q 365 736 365 779 q 338 669 365 707 l 351 669 q 483 756 424 733 q 619 778 542 778 q 817 723 735 778 q 942 578 900 668 q 983 382 983 488 q 942 186 983 276 q 817 41 900 96 q 619 -14 735 -14 q 483 8 542 -14 q 351 94 424 31 l 338 94 q 360 53 354 71 q 365 0 365 35 l 365 -164 q 376 -301 365 -258 q 415 -360 386 -344 q 508 -375 444 -375 q 515 -382 515 -375 l 515 -410 q 508 -417 515 -417 l 49 -417 m 583 28 q 745 113 688 28 q 803 382 803 197 q 746 651 803 565 q 586 736 689 736 q 406 651 476 736 q 335 386 335 565 q 403 115 335 201 q 583 28 471 28 z "},"q":{"ha":1053,"x_min":56,"x_max":997,"o":"m 847 -164 q 858 -301 847 -258 q 897 -360 868 -344 q 990 -375 926 -375 q 997 -382 997 -375 l 997 -410 q 990 -417 997 -417 l 531 -417 q 524 -410 524 -417 l 524 -382 q 531 -375 524 -375 q 624 -360 594 -375 q 663 -301 653 -344 q 674 -164 674 -258 l 674 0 q 679 53 674 35 q 701 94 685 71 l 688 94 q 556 8 615 31 q 419 -14 497 -14 q 222 41 304 -14 q 97 186 139 96 q 56 382 56 276 q 97 578 56 488 q 222 723 139 668 q 419 778 304 778 q 556 756 497 778 q 688 669 615 733 l 701 669 q 674 736 674 707 q 728 778 674 778 q 819 768 761 778 l 989 740 q 994 732 994 740 l 989 706 q 982 700 989 697 q 928 706 940 706 q 875 688 892 706 q 853 631 858 671 q 847 511 847 592 l 847 -164 m 704 386 q 633 651 704 565 q 453 736 563 736 q 293 651 350 736 q 236 382 236 565 q 294 113 236 197 q 456 28 351 28 q 636 115 568 28 q 704 386 704 201 z "},"r":{"ha":735,"x_min":56,"x_max":679,"o":"m 206 667 q 226 743 206 722 q 301 764 246 764 l 665 764 q 679 757 679 764 l 679 729 q 665 722 679 722 q 481 707 539 722 q 401 649 422 692 q 379 511 379 606 l 379 253 q 394 115 379 158 q 449 57 408 72 q 579 42 490 42 q 589 35 589 42 l 589 7 q 579 0 589 0 l 63 0 q 56 7 56 0 l 56 35 q 63 42 56 42 q 156 57 126 42 q 195 115 185 72 q 206 253 206 158 l 206 667 z "},"s":{"ha":854,"x_min":69,"x_max":785,"o":"m 100 572 q 181 724 100 669 q 399 778 261 778 q 588 747 508 778 q 706 658 667 715 q 740 524 746 600 q 725 510 739 507 l 600 535 q 589 540 592 538 q 588 551 586 543 q 589 572 589 558 q 534 691 589 646 q 388 736 479 736 q 268 708 311 736 q 225 628 225 681 q 275 542 225 572 q 444 474 325 511 q 644 397 571 435 q 751 314 717 360 q 785 204 785 268 q 747 94 785 144 q 635 15 708 44 q 458 -14 561 -14 q 187 43 304 -14 q 69 240 69 100 q 71 275 69 263 q 88 290 72 293 l 222 265 q 238 250 239 261 q 233 204 233 225 q 292 75 233 122 q 458 28 351 28 q 660 147 660 28 q 630 223 660 193 q 547 274 600 253 q 388 326 494 294 q 160 435 221 376 q 100 572 100 493 z "},"t":{"ha":615,"x_min":56,"x_max":560,"o":"m 379 722 l 379 253 q 392 115 379 158 q 440 57 404 72 q 551 42 475 42 q 560 35 560 42 l 560 7 q 551 0 560 0 l 358 0 q 244 52 283 0 q 206 201 206 104 l 206 722 l 63 722 q 56 729 56 722 l 56 757 q 63 764 56 764 l 136 764 q 203 802 182 764 q 228 915 224 840 q 233 1146 233 989 q 240 1153 233 1153 l 386 1153 q 393 1146 393 1153 q 386 942 393 1017 q 363 826 379 868 q 313 764 346 785 l 313 750 q 347 762 333 760 q 379 764 361 764 l 553 764 q 560 757 560 764 l 560 729 q 553 722 560 722 l 379 722 z "},"u":{"ha":1110,"x_min":53,"x_max":1082,"o":"m 376 229 q 385 115 376 157 q 421 50 394 72 q 497 28 447 28 q 758 136 642 28 l 758 511 q 752 633 758 593 q 728 690 746 674 q 672 707 710 707 q 622 703 651 707 q 615 708 615 700 l 611 736 q 617 743 608 743 l 856 778 q 871 779 861 779 q 917 760 903 779 q 932 715 932 742 l 932 253 q 942 115 932 158 q 982 57 953 72 q 1075 42 1011 42 q 1082 35 1082 42 l 1082 7 q 1075 0 1082 0 l 876 0 q 788 10 817 0 q 758 43 758 19 q 764 65 758 56 q 786 94 769 74 l 772 94 q 632 15 706 43 q 469 -14 558 -14 q 263 59 322 -14 q 203 299 203 132 l 203 511 q 197 633 203 593 q 172 690 190 674 q 117 707 154 707 q 67 703 96 707 q 60 708 60 700 l 56 736 q 61 743 53 743 l 300 778 q 315 779 306 779 q 362 760 347 779 q 376 715 376 742 l 376 229 z "},"ú":{"ha":1110,"x_min":53,"x_max":1082,"o":"m 376 229 q 385 115 376 157 q 421 50 394 72 q 497 28 447 28 q 758 136 642 28 l 758 511 q 752 633 758 593 q 728 690 746 674 q 672 707 710 707 q 622 703 651 707 q 615 708 615 700 l 611 736 q 617 743 608 743 l 856 778 q 871 779 861 779 q 917 760 903 779 q 932 715 932 742 l 932 253 q 942 115 932 158 q 982 57 953 72 q 1075 42 1011 42 q 1082 35 1082 42 l 1082 7 q 1075 0 1082 0 l 876 0 q 788 10 817 0 q 758 43 758 19 q 764 65 758 56 q 786 94 769 74 l 772 94 q 632 15 706 43 q 469 -14 558 -14 q 263 59 322 -14 q 203 299 203 132 l 203 511 q 197 633 203 593 q 172 690 190 674 q 117 707 154 707 q 67 703 96 707 q 60 708 60 700 l 56 736 q 61 743 53 743 l 300 778 q 315 779 306 779 q 362 760 347 779 q 376 715 376 742 l 376 229 z "},"û":{"ha":1110,"x_min":53,"x_max":1082,"o":"m 376 229 q 385 115 376 157 q 421 50 394 72 q 497 28 447 28 q 758 136 642 28 l 758 511 q 752 633 758 593 q 728 690 746 674 q 672 707 710 707 q 622 703 651 707 q 615 708 615 700 l 611 736 q 617 743 608 743 l 856 778 q 871 779 861 779 q 917 760 903 779 q 932 715 932 742 l 932 253 q 942 115 932 158 q 982 57 953 72 q 1075 42 1011 42 q 1082 35 1082 42 l 1082 7 q 1075 0 1082 0 l 876 0 q 788 10 817 0 q 758 43 758 19 q 764 65 758 56 q 786 94 769 74 l 772 94 q 632 15 706 43 q 469 -14 558 -14 q 263 59 322 -14 q 203 299 203 132 l 203 511 q 197 633 203 593 q 172 690 190 674 q 117 707 154 707 q 67 703 96 707 q 60 708 60 700 l 56 736 q 61 743 53 743 l 300 778 q 315 779 306 779 q 362 760 347 779 q 376 715 376 742 l 376 229 z "},"ü":{"ha":1110,"x_min":53,"x_max":1082,"o":"m 376 229 q 385 115 376 157 q 421 50 394 72 q 497 28 447 28 q 758 136 642 28 l 758 511 q 752 633 758 593 q 728 690 746 674 q 672 707 710 707 q 622 703 651 707 q 615 708 615 700 l 611 736 q 617 743 608 743 l 856 778 q 871 779 861 779 q 917 760 903 779 q 932 715 932 742 l 932 253 q 942 115 932 158 q 982 57 953 72 q 1075 42 1011 42 q 1082 35 1082 42 l 1082 7 q 1075 0 1082 0 l 876 0 q 788 10 817 0 q 758 43 758 19 q 764 65 758 56 q 786 94 769 74 l 772 94 q 632 15 706 43 q 469 -14 558 -14 q 263 59 322 -14 q 203 299 203 132 l 203 511 q 197 633 203 593 q 172 690 190 674 q 117 707 154 707 q 67 703 96 707 q 60 708 60 700 l 56 736 q 61 743 53 743 l 300 778 q 315 779 306 779 q 362 760 347 779 q 376 715 376 742 l 376 229 z "},"ù":{"ha":1110,"x_min":53,"x_max":1082,"o":"m 376 229 q 385 115 376 157 q 421 50 394 72 q 497 28 447 28 q 758 136 642 28 l 758 511 q 752 633 758 593 q 728 690 746 674 q 672 707 710 707 q 622 703 651 707 q 615 708 615 700 l 611 736 q 617 743 608 743 l 856 778 q 871 779 861 779 q 917 760 903 779 q 932 715 932 742 l 932 253 q 942 115 932 158 q 982 57 953 72 q 1075 42 1011 42 q 1082 35 1082 42 l 1082 7 q 1075 0 1082 0 l 876 0 q 788 10 817 0 q 758 43 758 19 q 764 65 758 56 q 786 94 769 74 l 772 94 q 632 15 706 43 q 469 -14 558 -14 q 263 59 322 -14 q 203 299 203 132 l 203 511 q 197 633 203 593 q 172 690 190 674 q 117 707 154 707 q 67 703 96 707 q 60 708 60 700 l 56 736 q 61 743 53 743 l 300 778 q 315 779 306 779 q 362 760 347 779 q 376 715 376 742 l 376 229 z "},"v":{"ha":1096,"x_min":28,"x_max":1068,"o":"m 242 529 q 179 654 208 614 q 117 708 150 694 q 33 722 85 722 q 28 729 28 722 l 28 757 q 33 764 28 764 l 485 764 q 492 757 492 764 l 492 729 q 485 722 492 722 q 410 714 431 722 q 389 679 389 706 q 400 624 389 658 q 436 529 411 590 l 608 97 q 617 56 617 75 l 631 56 q 639 97 631 75 l 811 529 q 846 624 835 589 q 857 678 857 658 q 836 713 857 704 q 761 722 815 722 q 754 729 754 722 l 754 757 q 761 764 754 764 l 1063 764 q 1068 757 1068 764 l 1068 729 q 1063 722 1068 722 q 978 708 1011 722 q 917 653 946 694 q 856 529 889 613 l 646 0 l 453 0 l 242 529 z "},"w":{"ha":1619,"x_min":28,"x_max":1592,"o":"m 1586 764 q 1592 757 1592 764 l 1592 729 q 1586 722 1592 722 q 1503 708 1535 722 q 1444 653 1471 694 q 1386 526 1417 611 l 1197 0 l 1004 0 l 819 508 l 617 0 l 425 0 l 233 526 q 176 653 203 611 q 117 708 149 694 q 33 722 85 722 q 28 729 28 722 l 28 757 q 33 764 28 764 l 485 764 q 492 757 492 764 l 492 729 q 485 722 492 722 q 408 713 429 722 q 386 674 386 703 q 395 622 386 654 q 426 526 404 589 l 581 97 q 589 56 589 75 l 603 56 q 611 97 603 75 l 797 565 q 749 665 771 632 q 706 710 728 699 q 656 722 685 722 q 651 729 651 722 l 651 757 q 656 764 651 764 l 1064 764 q 1071 757 1071 764 l 1071 729 q 1064 722 1071 722 q 987 713 1008 722 q 965 674 965 703 q 974 622 965 654 q 1006 526 983 589 l 1160 97 q 1168 56 1168 75 l 1182 56 q 1190 97 1182 75 l 1343 526 q 1374 622 1365 589 q 1383 674 1383 654 q 1362 713 1383 703 q 1285 722 1340 722 q 1278 729 1278 722 l 1278 757 q 1285 764 1278 764 l 1586 764 z "},"ẃ":{"ha":1619,"x_min":28,"x_max":1592,"o":"m 1586 764 q 1592 757 1592 764 l 1592 729 q 1586 722 1592 722 q 1503 708 1535 722 q 1444 653 1471 694 q 1386 526 1417 611 l 1197 0 l 1004 0 l 819 508 l 617 0 l 425 0 l 233 526 q 176 653 203 611 q 117 708 149 694 q 33 722 85 722 q 28 729 28 722 l 28 757 q 33 764 28 764 l 485 764 q 492 757 492 764 l 492 729 q 485 722 492 722 q 408 713 429 722 q 386 674 386 703 q 395 622 386 654 q 426 526 404 589 l 581 97 q 589 56 589 75 l 603 56 q 611 97 603 75 l 797 565 q 749 665 771 632 q 706 710 728 699 q 656 722 685 722 q 651 729 651 722 l 651 757 q 656 764 651 764 l 1064 764 q 1071 757 1071 764 l 1071 729 q 1064 722 1071 722 q 987 713 1008 722 q 965 674 965 703 q 974 622 965 654 q 1006 526 983 589 l 1160 97 q 1168 56 1168 75 l 1182 56 q 1190 97 1182 75 l 1343 526 q 1374 622 1365 589 q 1383 674 1383 654 q 1362 713 1383 703 q 1285 722 1340 722 q 1278 729 1278 722 l 1278 757 q 1285 764 1278 764 l 1586 764 z "},"ŵ":{"ha":1619,"x_min":28,"x_max":1592,"o":"m 1586 764 q 1592 757 1592 764 l 1592 729 q 1586 722 1592 722 q 1503 708 1535 722 q 1444 653 1471 694 q 1386 526 1417 611 l 1197 0 l 1004 0 l 819 508 l 617 0 l 425 0 l 233 526 q 176 653 203 611 q 117 708 149 694 q 33 722 85 722 q 28 729 28 722 l 28 757 q 33 764 28 764 l 485 764 q 492 757 492 764 l 492 729 q 485 722 492 722 q 408 713 429 722 q 386 674 386 703 q 395 622 386 654 q 426 526 404 589 l 581 97 q 589 56 589 75 l 603 56 q 611 97 603 75 l 797 565 q 749 665 771 632 q 706 710 728 699 q 656 722 685 722 q 651 729 651 722 l 651 757 q 656 764 651 764 l 1064 764 q 1071 757 1071 764 l 1071 729 q 1064 722 1071 722 q 987 713 1008 722 q 965 674 965 703 q 974 622 965 654 q 1006 526 983 589 l 1160 97 q 1168 56 1168 75 l 1182 56 q 1190 97 1182 75 l 1343 526 q 1374 622 1365 589 q 1383 674 1383 654 q 1362 713 1383 703 q 1285 722 1340 722 q 1278 729 1278 722 l 1278 757 q 1285 764 1278 764 l 1586 764 z "},"ẅ":{"ha":1619,"x_min":28,"x_max":1592,"o":"m 1586 764 q 1592 757 1592 764 l 1592 729 q 1586 722 1592 722 q 1503 708 1535 722 q 1444 653 1471 694 q 1386 526 1417 611 l 1197 0 l 1004 0 l 819 508 l 617 0 l 425 0 l 233 526 q 176 653 203 611 q 117 708 149 694 q 33 722 85 722 q 28 729 28 722 l 28 757 q 33 764 28 764 l 485 764 q 492 757 492 764 l 492 729 q 485 722 492 722 q 408 713 429 722 q 386 674 386 703 q 395 622 386 654 q 426 526 404 589 l 581 97 q 589 56 589 75 l 603 56 q 611 97 603 75 l 797 565 q 749 665 771 632 q 706 710 728 699 q 656 722 685 722 q 651 729 651 722 l 651 757 q 656 764 651 764 l 1064 764 q 1071 757 1071 764 l 1071 729 q 1064 722 1071 722 q 987 713 1008 722 q 965 674 965 703 q 974 622 965 654 q 1006 526 983 589 l 1160 97 q 1168 56 1168 75 l 1182 56 q 1190 97 1182 75 l 1343 526 q 1374 622 1365 589 q 1383 674 1383 654 q 1362 713 1383 703 q 1285 722 1340 722 q 1278 729 1278 722 l 1278 757 q 1285 764 1278 764 l 1586 764 z "},"ẁ":{"ha":1619,"x_min":28,"x_max":1592,"o":"m 1586 764 q 1592 757 1592 764 l 1592 729 q 1586 722 1592 722 q 1503 708 1535 722 q 1444 653 1471 694 q 1386 526 1417 611 l 1197 0 l 1004 0 l 819 508 l 617 0 l 425 0 l 233 526 q 176 653 203 611 q 117 708 149 694 q 33 722 85 722 q 28 729 28 722 l 28 757 q 33 764 28 764 l 485 764 q 492 757 492 764 l 492 729 q 485 722 492 722 q 408 713 429 722 q 386 674 386 703 q 395 622 386 654 q 426 526 404 589 l 581 97 q 589 56 589 75 l 603 56 q 611 97 603 75 l 797 565 q 749 665 771 632 q 706 710 728 699 q 656 722 685 722 q 651 729 651 722 l 651 757 q 656 764 651 764 l 1064 764 q 1071 757 1071 764 l 1071 729 q 1064 722 1071 722 q 987 713 1008 722 q 965 674 965 703 q 974 622 965 654 q 1006 526 983 589 l 1160 97 q 1168 56 1168 75 l 1182 56 q 1190 97 1182 75 l 1343 526 q 1374 622 1365 589 q 1383 674 1383 654 q 1362 713 1383 703 q 1285 722 1340 722 q 1278 729 1278 722 l 1278 757 q 1285 764 1278 764 l 1586 764 z "},"x":{"ha":997,"x_min":14,"x_max":983,"o":"m 978 42 q 983 35 983 42 l 983 7 q 978 0 983 0 l 528 0 q 522 7 522 0 l 522 35 q 528 42 522 42 q 584 46 567 42 q 601 63 601 50 q 587 98 601 75 q 539 167 572 121 l 511 207 l 453 289 l 383 200 l 354 163 q 301 93 317 115 q 286 60 286 71 q 302 45 286 49 q 357 42 318 42 q 363 35 363 42 l 363 7 q 357 0 363 0 l 61 0 q 56 7 56 0 l 56 35 q 61 42 56 42 q 153 52 115 42 q 234 97 192 63 q 331 200 276 131 l 428 325 l 265 557 q 175 665 214 629 q 101 711 136 700 q 19 722 67 722 q 14 729 14 722 l 14 757 q 19 764 14 764 l 469 764 q 475 757 475 764 l 475 729 q 469 722 475 722 q 413 718 431 722 q 396 701 396 714 q 410 666 396 689 q 458 597 425 643 l 486 557 l 544 475 l 614 564 l 643 601 q 696 671 681 649 q 711 704 711 693 q 695 719 711 715 q 640 722 679 722 q 635 729 635 722 l 635 757 q 640 764 635 764 l 936 764 q 942 757 942 764 l 942 729 q 936 722 942 722 q 844 712 882 722 q 763 667 806 701 q 667 564 721 633 l 569 439 l 732 207 q 822 99 783 135 q 896 53 861 64 q 978 42 931 42 z "},"y":{"ha":1126,"x_min":28,"x_max":1099,"o":"m 247 532 q 181 655 211 614 q 118 709 151 696 q 33 722 85 722 q 28 729 28 722 l 28 757 q 33 764 28 764 l 486 764 q 493 757 493 764 l 493 729 q 486 722 493 722 q 413 714 433 722 q 392 681 392 706 q 403 631 392 661 q 443 532 414 600 l 635 92 q 642 71 640 79 q 643 54 643 63 l 657 54 q 665 92 657 67 l 821 526 q 852 622 843 589 q 861 674 861 654 q 840 713 861 703 q 763 722 818 722 q 756 729 756 722 l 756 757 q 763 764 756 764 l 1092 764 q 1099 757 1099 764 l 1099 729 q 1092 722 1099 722 q 990 708 1026 722 q 924 653 953 694 q 864 525 894 611 l 579 -276 q 536 -364 558 -335 q 479 -405 514 -393 q 381 -417 444 -417 q 372 -410 375 -417 l 325 -243 q 326 -238 324 -240 q 332 -236 329 -236 q 487 -230 443 -236 q 547 -206 531 -224 q 581 -139 563 -189 l 631 0 l 476 0 l 247 532 z "},"ý":{"ha":1126,"x_min":28,"x_max":1099,"o":"m 247 532 q 181 655 211 614 q 118 709 151 696 q 33 722 85 722 q 28 729 28 722 l 28 757 q 33 764 28 764 l 486 764 q 493 757 493 764 l 493 729 q 486 722 493 722 q 413 714 433 722 q 392 681 392 706 q 403 631 392 661 q 443 532 414 600 l 635 92 q 642 71 640 79 q 643 54 643 63 l 657 54 q 665 92 657 67 l 821 526 q 852 622 843 589 q 861 674 861 654 q 840 713 861 703 q 763 722 818 722 q 756 729 756 722 l 756 757 q 763 764 756 764 l 1092 764 q 1099 757 1099 764 l 1099 729 q 1092 722 1099 722 q 990 708 1026 722 q 924 653 953 694 q 864 525 894 611 l 579 -276 q 536 -364 558 -335 q 479 -405 514 -393 q 381 -417 444 -417 q 372 -410 375 -417 l 325 -243 q 326 -238 324 -240 q 332 -236 329 -236 q 487 -230 443 -236 q 547 -206 531 -224 q 581 -139 563 -189 l 631 0 l 476 0 l 247 532 z "},"ŷ":{"ha":1126,"x_min":28,"x_max":1099,"o":"m 247 532 q 181 655 211 614 q 118 709 151 696 q 33 722 85 722 q 28 729 28 722 l 28 757 q 33 764 28 764 l 486 764 q 493 757 493 764 l 493 729 q 486 722 493 722 q 413 714 433 722 q 392 681 392 706 q 403 631 392 661 q 443 532 414 600 l 635 92 q 642 71 640 79 q 643 54 643 63 l 657 54 q 665 92 657 67 l 821 526 q 852 622 843 589 q 861 674 861 654 q 840 713 861 703 q 763 722 818 722 q 756 729 756 722 l 756 757 q 763 764 756 764 l 1092 764 q 1099 757 1099 764 l 1099 729 q 1092 722 1099 722 q 990 708 1026 722 q 924 653 953 694 q 864 525 894 611 l 579 -276 q 536 -364 558 -335 q 479 -405 514 -393 q 381 -417 444 -417 q 372 -410 375 -417 l 325 -243 q 326 -238 324 -240 q 332 -236 329 -236 q 487 -230 443 -236 q 547 -206 531 -224 q 581 -139 563 -189 l 631 0 l 476 0 l 247 532 z "},"ÿ":{"ha":1126,"x_min":28,"x_max":1099,"o":"m 247 532 q 181 655 211 614 q 118 709 151 696 q 33 722 85 722 q 28 729 28 722 l 28 757 q 33 764 28 764 l 486 764 q 493 757 493 764 l 493 729 q 486 722 493 722 q 413 714 433 722 q 392 681 392 706 q 403 631 392 661 q 443 532 414 600 l 635 92 q 642 71 640 79 q 643 54 643 63 l 657 54 q 665 92 657 67 l 821 526 q 852 622 843 589 q 861 674 861 654 q 840 713 861 703 q 763 722 818 722 q 756 729 756 722 l 756 757 q 763 764 756 764 l 1092 764 q 1099 757 1099 764 l 1099 729 q 1092 722 1099 722 q 990 708 1026 722 q 924 653 953 694 q 864 525 894 611 l 579 -276 q 536 -364 558 -335 q 479 -405 514 -393 q 381 -417 444 -417 q 372 -410 375 -417 l 325 -243 q 326 -238 324 -240 q 332 -236 329 -236 q 487 -230 443 -236 q 547 -206 531 -224 q 581 -139 563 -189 l 631 0 l 476 0 l 247 532 z "},"ỳ":{"ha":1126,"x_min":28,"x_max":1099,"o":"m 247 532 q 181 655 211 614 q 118 709 151 696 q 33 722 85 722 q 28 729 28 722 l 28 757 q 33 764 28 764 l 486 764 q 493 757 493 764 l 493 729 q 486 722 493 722 q 413 714 433 722 q 392 681 392 706 q 403 631 392 661 q 443 532 414 600 l 635 92 q 642 71 640 79 q 643 54 643 63 l 657 54 q 665 92 657 67 l 821 526 q 852 622 843 589 q 861 674 861 654 q 840 713 861 703 q 763 722 818 722 q 756 729 756 722 l 756 757 q 763 764 756 764 l 1092 764 q 1099 757 1099 764 l 1099 729 q 1092 722 1099 722 q 990 708 1026 722 q 924 653 953 694 q 864 525 894 611 l 579 -276 q 536 -364 558 -335 q 479 -405 514 -393 q 381 -417 444 -417 q 372 -410 375 -417 l 325 -243 q 326 -238 324 -240 q 332 -236 329 -236 q 487 -230 443 -236 q 547 -206 531 -224 q 581 -139 563 -189 l 631 0 l 476 0 l 247 532 z "},"z":{"ha":903,"x_min":69,"x_max":833,"o":"m 344 100 q 329 79 340 94 q 309 56 318 64 q 290 42 300 47 l 290 28 q 354 43 315 43 l 553 43 q 692 54 646 42 q 758 97 738 67 q 788 190 778 126 q 796 196 790 196 l 824 190 q 829 183 829 190 l 801 14 l 799 0 l 69 0 l 69 42 l 558 664 q 576 686 565 672 q 594 708 586 700 q 613 722 603 717 l 613 736 q 549 721 588 721 l 350 721 q 211 710 257 722 q 145 667 165 697 q 115 574 125 638 q 107 568 113 568 l 79 574 q 74 581 74 574 l 101 750 l 104 764 l 833 764 l 833 722 l 344 100 z "},".":{"ha":313,"x_min":56,"x_max":257,"o":"m 156 -14 q 84 15 113 -14 q 56 86 56 43 q 84 158 56 129 q 156 188 113 188 q 228 158 199 188 q 257 86 257 129 q 228 15 257 43 q 156 -14 199 -14 z "},",":{"ha":315,"x_min":54,"x_max":260,"o":"m 260 85 q 213 -44 260 31 l 113 -200 q 97 -208 107 -208 l 63 -208 q 56 -205 58 -208 q 56 -197 54 -201 l 113 -74 q 158 -28 128 -37 l 158 -14 q 87 15 115 -14 q 58 86 58 43 q 87 158 58 129 q 158 188 115 188 q 231 158 201 188 q 260 86 260 129 l 260 85 z "},":":{"ha":313,"x_min":56,"x_max":257,"o":"m 156 -14 q 84 15 113 -14 q 56 86 56 43 q 84 158 56 129 q 156 188 113 188 q 228 158 199 188 q 257 86 257 129 q 228 15 257 43 q 156 -14 199 -14 m 156 576 q 84 605 113 576 q 56 676 56 633 q 84 749 56 719 q 156 778 113 778 q 228 749 199 778 q 257 676 257 719 q 228 605 257 633 q 156 576 199 576 z "},";":{"ha":315,"x_min":54,"x_max":260,"o":"m 260 85 q 213 -44 260 31 l 113 -200 q 97 -208 107 -208 l 63 -208 q 56 -205 58 -208 q 56 -197 54 -201 l 113 -74 q 158 -28 128 -37 l 158 -14 q 87 15 115 -14 q 58 86 58 43 q 87 158 58 129 q 158 188 115 188 q 231 158 201 188 q 260 86 260 129 l 260 85 m 156 576 q 84 605 113 576 q 56 676 56 633 q 84 749 56 719 q 156 778 113 778 q 228 749 199 778 q 257 676 257 719 q 228 605 257 633 q 156 576 199 576 z "},"…":{"ha":854,"x_min":56,"x_max":799,"o":"m 426 -14 q 355 15 383 -14 q 326 86 326 43 q 355 158 326 129 q 426 188 383 188 q 499 158 469 188 q 528 86 528 129 q 499 15 528 43 q 426 -14 469 -14 m 697 -14 q 626 15 654 -14 q 597 86 597 43 q 626 158 597 129 q 697 188 654 188 q 769 158 740 188 q 799 86 799 129 q 769 15 799 43 q 697 -14 740 -14 m 156 -14 q 84 15 113 -14 q 56 86 56 43 q 84 158 56 129 q 156 188 113 188 q 228 158 199 188 q 257 86 257 129 q 228 15 257 43 q 156 -14 199 -14 z "},"!":{"ha":313,"x_min":56,"x_max":257,"o":"m 67 1139 q 81 1153 67 1153 l 233 1153 q 247 1139 247 1153 l 247 985 q 240 850 247 921 q 217 669 232 779 q 192 472 200 540 q 185 333 185 403 q 178 326 185 326 l 136 326 q 129 333 129 326 q 122 472 129 403 q 97 669 114 540 q 74 850 82 779 q 67 985 67 921 l 67 1139 m 156 -14 q 84 15 113 -14 q 56 86 56 43 q 84 158 56 129 q 156 188 113 188 q 228 158 199 188 q 257 86 257 129 q 228 15 257 43 q 156 -14 199 -14 z "},"¡":{"ha":313,"x_min":56,"x_max":257,"o":"m 156 778 q 228 749 199 778 q 257 678 257 721 q 228 606 257 635 q 156 576 199 576 q 84 606 113 576 q 56 678 56 635 q 84 749 56 721 q 156 778 113 778 m 67 -221 q 74 -86 67 -157 q 97 94 82 -15 q 122 292 114 224 q 129 431 129 361 q 136 438 129 438 l 178 438 q 185 431 185 438 q 192 292 185 361 q 217 94 200 224 q 240 -86 232 -15 q 247 -221 247 -157 l 247 -375 q 233 -389 247 -389 l 81 -389 q 67 -375 67 -389 l 67 -221 z "},"?":{"ha":846,"x_min":56,"x_max":790,"o":"m 790 908 q 763 796 790 843 q 696 717 736 749 q 585 643 656 685 l 547 619 q 449 564 507 594 q 348 505 383 528 q 289 450 313 482 q 265 375 265 418 l 546 375 l 546 333 l 224 333 q 247 448 224 400 q 303 528 269 496 q 396 606 336 560 q 478 671 451 647 q 583 796 556 740 q 610 932 610 851 q 565 1072 610 1019 q 433 1125 521 1125 q 278 1065 326 1125 q 231 889 231 1004 q 239 782 231 840 l 239 778 q 231 769 239 769 l 68 769 q 58 782 58 769 q 56 833 56 818 q 169 1098 56 1029 q 438 1167 282 1167 q 611 1138 531 1167 q 741 1050 692 1108 q 790 908 790 992 m 381 -14 q 309 15 338 -14 q 281 86 281 43 q 309 158 281 129 q 381 188 338 188 q 453 158 424 188 q 482 86 482 129 q 453 15 482 43 q 381 -14 424 -14 z "},"¿":{"ha":846,"x_min":56,"x_max":790,"o":"m 465 778 q 537 749 508 778 q 565 678 565 721 q 537 606 565 635 q 465 576 508 576 q 393 606 422 576 q 364 678 364 635 q 393 749 364 721 q 465 778 422 778 m 56 -144 q 83 -32 56 -79 q 150 47 110 15 q 261 121 190 79 l 299 144 q 397 200 339 169 q 498 259 463 236 q 557 314 533 282 q 581 389 581 346 l 300 389 l 300 431 l 622 431 q 599 316 622 364 q 543 236 576 268 q 450 158 510 204 q 368 93 394 117 q 263 -32 290 24 q 236 -168 236 -87 q 281 -308 236 -256 q 413 -361 325 -361 q 567 -301 519 -361 q 615 -125 615 -240 q 607 -18 615 -76 l 607 -14 q 615 -6 607 -6 l 778 -6 q 788 -18 788 -6 q 790 -69 790 -54 q 677 -334 790 -265 q 408 -403 564 -403 q 235 -374 315 -403 q 105 -286 154 -344 q 56 -144 56 -228 z "},"·":{"ha":313,"x_min":56,"x_max":257,"o":"m 156 293 q 84 322 113 293 q 56 393 56 350 q 84 465 56 436 q 156 494 113 494 q 228 465 199 494 q 257 393 257 436 q 228 322 257 350 q 156 293 199 293 z "},"•":{"ha":564,"x_min":54,"x_max":507,"o":"m 279 168 q 165 197 217 168 q 84 278 114 226 q 54 393 54 329 q 84 508 54 456 q 165 591 114 561 q 279 621 217 621 q 394 590 342 621 q 476 508 446 560 q 507 393 507 456 q 477 278 507 329 q 394 197 447 226 q 279 168 342 168 z "},"*":{"ha":847,"x_min":56,"x_max":792,"o":"m 714 882 q 773 869 754 882 q 792 826 792 856 q 714 771 792 771 q 658 778 686 771 q 624 788 629 786 q 542 808 581 800 q 449 817 503 815 q 519 759 488 781 q 592 713 550 738 q 633 688 613 700 q 668 660 653 675 q 701 601 701 626 q 683 567 701 585 q 647 550 667 550 q 589 582 621 550 q 538 657 564 607 q 492 731 513 700 q 433 801 471 763 q 442 708 435 747 q 463 626 450 669 q 472 592 464 621 q 479 536 479 564 q 466 477 479 496 q 424 458 453 458 q 381 477 394 458 q 368 536 368 496 q 376 592 368 564 q 385 626 383 621 q 405 708 397 669 q 414 801 413 747 q 356 731 378 763 q 310 658 335 700 q 285 617 297 638 q 257 582 272 597 q 200 549 226 549 q 164 567 181 549 q 146 603 146 583 q 179 660 146 629 q 215 688 194 675 q 256 713 235 700 q 328 759 297 738 q 399 817 360 781 q 306 808 344 815 q 224 788 267 800 q 190 778 218 786 q 133 771 161 771 q 74 784 93 771 q 56 826 56 797 q 74 869 56 856 q 133 882 93 882 q 190 874 161 882 q 224 865 218 867 q 306 845 267 853 q 399 836 344 838 q 328 894 360 874 q 254 940 297 915 q 179 992 204 967 q 146 1051 146 1025 q 163 1086 146 1069 q 200 1104 181 1104 q 257 1071 226 1104 q 285 1035 272 1056 q 310 994 297 1015 q 356 922 335 953 q 414 851 378 890 q 405 944 413 906 q 385 1026 397 983 q 376 1060 383 1032 q 368 1117 368 1089 q 381 1176 368 1157 q 424 1194 394 1194 q 479 1117 479 1194 q 472 1060 479 1089 q 463 1026 464 1032 q 442 944 450 983 q 433 851 435 906 q 491 922 469 890 q 538 994 513 953 q 563 1035 550 1015 q 590 1071 575 1056 q 647 1104 622 1104 q 683 1086 667 1104 q 700 1050 700 1069 q 668 993 700 1024 q 633 965 653 978 q 592 940 613 953 q 519 894 550 915 q 449 836 488 872 q 542 845 503 838 q 624 865 581 853 q 658 874 629 867 q 714 882 686 882 z "},"#":{"ha":1688,"x_min":56,"x_max":1632,"o":"m 1625 681 q 1632 674 1632 681 l 1632 604 q 1625 597 1632 597 l 1197 597 l 1069 181 l 1467 181 q 1474 174 1474 181 l 1474 104 q 1467 97 1474 97 l 1043 97 l 903 -358 q 885 -368 899 -372 l 832 -351 q 824 -333 819 -347 l 957 97 l 554 97 l 414 -358 q 396 -368 410 -372 l 343 -351 q 335 -333 331 -347 l 468 97 l 63 97 q 56 104 56 97 l 56 174 q 63 181 56 181 l 493 181 l 622 597 l 222 597 q 215 604 215 597 l 215 674 q 222 681 215 681 l 647 681 l 801 1181 q 819 1190 806 1194 l 872 1174 q 881 1156 885 1169 l 735 681 l 1136 681 l 1290 1181 q 1308 1190 1294 1194 l 1361 1174 q 1369 1156 1374 1169 l 1224 681 l 1625 681 m 581 181 l 982 181 l 1111 597 l 708 597 l 581 181 z "},"/":{"ha":665,"x_min":56,"x_max":610,"o":"m 526 1181 q 544 1190 531 1194 l 597 1174 q 606 1156 610 1169 l 139 -358 q 121 -368 135 -372 l 68 -351 q 60 -333 56 -347 l 526 1181 z "},"\\":{"ha":665,"x_min":58,"x_max":607,"o":"m 606 -333 q 607 -340 607 -336 q 597 -351 607 -350 l 544 -368 l 539 -369 q 526 -358 531 -369 l 60 1156 l 58 1163 q 68 1174 58 1171 l 121 1190 l 126 1192 q 139 1181 135 1192 l 606 -333 z "},"(":{"ha":422,"x_min":56,"x_max":368,"o":"m 364 -336 q 367 -344 367 -339 q 361 -356 367 -351 l 314 -386 q 306 -389 308 -389 q 294 -383 299 -389 q 113 -18 171 -217 q 56 396 56 181 q 113 810 56 611 q 294 1175 171 1008 q 314 1178 303 1185 l 361 1147 q 367 1139 367 1144 q 364 1128 368 1133 q 139 396 139 822 q 364 -336 139 -31 z "},")":{"ha":428,"x_min":54,"x_max":367,"o":"m 58 -336 q 283 396 283 -31 q 58 1128 283 822 q 56 1136 56 1131 q 61 1147 56 1143 l 108 1178 q 117 1181 114 1181 q 128 1175 124 1181 q 309 810 251 1008 q 367 396 367 611 q 309 -18 367 181 q 128 -383 251 -217 q 108 -386 119 -393 l 61 -356 q 55 -347 56 -353 q 58 -336 54 -342 z "},"{":{"ha":488,"x_min":56,"x_max":432,"o":"m 63 368 q 56 375 56 368 l 56 444 q 63 451 56 451 q 156 465 124 451 q 201 506 189 478 q 214 582 214 533 q 200 738 214 615 q 182 968 182 903 q 244 1133 182 1074 q 425 1194 306 1193 q 432 1188 432 1194 l 432 1118 q 425 1111 432 1111 q 303 1074 340 1110 q 265 968 265 1039 q 282 756 265 903 q 297 582 297 633 q 271 465 297 506 q 185 424 244 424 l 185 396 q 271 355 244 396 q 297 238 297 314 q 282 64 297 186 q 265 -149 265 -83 q 303 -255 265 -219 q 425 -292 340 -290 q 432 -299 432 -292 l 432 -368 q 425 -375 432 -375 q 244 -314 306 -374 q 182 -149 182 -254 q 200 82 182 -83 q 214 238 214 204 q 201 314 214 286 q 156 355 189 342 q 63 368 124 368 z "},"}":{"ha":488,"x_min":56,"x_max":432,"o":"m 425 368 q 331 355 364 368 q 286 314 299 342 q 274 238 274 286 q 288 82 274 204 q 306 -149 306 -83 q 244 -314 306 -254 q 63 -375 182 -374 q 56 -368 56 -375 l 56 -299 q 63 -292 56 -292 q 185 -255 147 -290 q 222 -149 222 -219 q 206 64 222 -83 q 190 238 190 186 q 217 355 190 314 q 303 396 243 396 l 303 424 q 217 465 243 424 q 190 582 190 506 q 206 756 190 633 q 222 968 222 903 q 185 1074 222 1039 q 63 1111 147 1110 q 56 1118 56 1111 l 56 1188 q 63 1194 56 1194 q 244 1133 182 1193 q 306 968 306 1074 q 288 738 306 903 q 274 582 274 615 q 286 506 274 533 q 331 465 299 478 q 425 451 364 451 q 432 444 432 451 l 432 375 q 425 368 432 368 z "},"[":{"ha":406,"x_min":56,"x_max":350,"o":"m 343 -292 q 350 -299 350 -292 l 350 -368 q 343 -375 350 -375 l 63 -375 q 56 -368 56 -375 l 56 1188 q 63 1194 56 1194 l 343 1194 q 350 1188 350 1194 l 350 1118 q 343 1111 350 1111 l 146 1111 q 139 1104 139 1111 l 139 -285 q 146 -292 139 -292 l 343 -292 z "},"]":{"ha":406,"x_min":56,"x_max":350,"o":"m 260 -292 q 267 -285 267 -292 l 267 1104 q 260 1111 267 1111 l 63 1111 q 56 1118 56 1111 l 56 1188 q 63 1194 56 1194 l 343 1194 q 350 1188 350 1194 l 350 -368 q 343 -375 350 -375 l 63 -375 q 56 -368 56 -375 l 56 -299 q 63 -292 56 -292 l 260 -292 z "},"-":{"ha":708,"x_min":56,"x_max":653,"o":"m 56 417 q 63 424 56 424 l 646 424 q 653 417 653 424 l 653 347 q 646 340 653 340 l 63 340 q 56 347 56 340 l 56 417 z "},"–":{"ha":944,"x_min":56,"x_max":889,"o":"m 56 417 q 63 424 56 424 l 882 424 q 889 417 889 424 l 889 347 q 882 340 889 340 l 63 340 q 56 347 56 340 l 56 417 z "},"—":{"ha":1236,"x_min":56,"x_max":1181,"o":"m 56 417 q 63 424 56 424 l 1174 424 q 1181 417 1181 424 l 1181 347 q 1174 340 1181 340 l 63 340 q 56 347 56 340 l 56 417 z "},"_":{"ha":944,"x_min":56,"x_max":889,"o":"m 56 -76 q 63 -69 56 -69 l 882 -69 q 889 -76 889 -69 l 889 -146 q 882 -153 889 -153 l 63 -153 q 56 -146 56 -153 l 56 -76 z "},"‚":{"ha":806,"x_min":54,"x_max":260,"o":"m 260 85 q 213 -44 260 31 l 113 -200 q 97 -208 107 -208 l 63 -208 q 56 -205 58 -208 q 56 -197 54 -201 l 113 -74 q 158 -28 128 -37 l 158 -14 q 87 15 115 -14 q 58 86 58 43 q 87 158 58 129 q 158 188 115 188 q 231 158 201 188 q 260 86 260 129 l 260 85 z "},"„":{"ha":572,"x_min":54,"x_max":517,"o":"m 517 85 q 469 -44 517 31 l 369 -200 q 354 -208 364 -208 l 319 -208 q 313 -205 315 -208 q 313 -197 311 -201 l 369 -74 q 415 -28 385 -37 l 415 -14 q 344 15 372 -14 q 315 86 315 43 q 344 158 315 129 q 415 188 372 188 q 488 158 458 188 q 517 86 517 129 l 517 85 m 260 85 q 213 -44 260 31 l 113 -200 q 97 -208 107 -208 l 63 -208 q 56 -205 58 -208 q 56 -197 54 -201 l 113 -74 q 158 -28 128 -37 l 158 -14 q 87 15 115 -14 q 58 86 58 43 q 87 158 58 129 q 158 188 115 188 q 231 158 201 188 q 260 86 260 129 l 260 85 z "},"“":{"ha":572,"x_min":56,"x_max":518,"o":"m 253 1125 q 259 1122 257 1125 q 260 1114 261 1118 l 203 990 q 157 944 188 954 l 157 931 q 228 902 200 931 q 257 831 257 874 q 228 758 257 788 q 157 729 200 729 q 85 758 114 729 q 56 831 56 788 l 56 832 q 103 961 56 886 l 203 1117 q 218 1125 208 1125 l 253 1125 m 460 990 q 414 944 444 954 l 414 931 q 485 902 457 931 q 514 831 514 874 q 485 758 514 788 q 414 729 457 729 q 342 758 371 729 q 313 831 313 788 l 313 832 q 360 961 313 886 l 460 1117 q 475 1125 467 1125 l 510 1125 q 516 1122 514 1125 q 517 1114 518 1118 l 460 990 z "},"”":{"ha":572,"x_min":54,"x_max":517,"o":"m 260 1022 q 213 893 260 968 l 113 738 q 97 729 107 729 l 63 729 q 56 733 58 729 q 56 740 54 736 l 113 864 q 158 910 128 900 l 158 924 q 87 952 115 924 q 58 1024 58 981 q 87 1096 58 1067 q 158 1125 115 1125 q 231 1096 201 1125 q 260 1024 260 1067 l 260 1022 m 517 1022 q 469 893 517 968 l 369 738 q 354 729 364 729 l 319 729 q 313 733 315 729 q 313 740 311 736 l 369 864 q 415 910 385 900 l 415 924 q 344 952 372 924 q 315 1024 315 981 q 344 1096 315 1067 q 415 1125 372 1125 q 488 1096 458 1125 q 517 1024 517 1067 l 517 1022 z "},"‘":{"ha":315,"x_min":56,"x_max":261,"o":"m 203 990 q 157 944 188 954 l 157 931 q 228 902 200 931 q 257 831 257 874 q 228 758 257 788 q 157 729 200 729 q 85 758 114 729 q 56 831 56 788 l 56 832 q 103 961 56 886 l 203 1117 q 218 1125 208 1125 l 253 1125 q 259 1122 257 1125 q 260 1114 261 1118 l 203 990 z "},"’":{"ha":315,"x_min":54,"x_max":260,"o":"m 260 1022 q 213 893 260 968 l 113 738 q 97 729 107 729 l 63 729 q 56 733 58 729 q 56 740 54 736 l 113 864 q 158 910 128 900 l 158 924 q 87 952 115 924 q 58 1024 58 981 q 87 1096 58 1067 q 158 1125 115 1125 q 231 1096 201 1125 q 260 1024 260 1067 l 260 1022 z "},"«":{"ha":857,"x_min":111,"x_max":747,"o":"m 118 340 q 111 347 111 340 l 111 417 q 118 424 111 424 q 247 458 197 424 q 325 551 296 492 q 379 707 354 611 q 386 714 382 714 l 456 714 q 461 712 458 714 q 463 707 464 710 q 410 548 436 610 q 338 444 383 486 q 218 389 292 403 l 218 375 q 338 319 292 361 q 410 216 383 278 q 463 57 436 154 q 461 52 464 54 q 456 50 458 50 l 386 50 q 379 57 382 50 q 325 213 354 153 q 247 306 296 272 q 118 340 197 340 m 401 340 q 394 347 394 340 l 394 417 q 401 424 394 424 q 530 458 481 424 q 608 551 579 492 q 663 707 638 611 q 669 714 665 714 l 739 714 q 744 712 742 714 q 746 707 747 710 q 693 548 719 610 q 621 444 667 486 q 501 389 575 403 l 501 375 q 621 319 575 361 q 693 216 667 278 q 746 57 719 154 q 744 52 747 54 q 739 50 742 50 l 669 50 q 663 57 665 50 q 608 213 638 153 q 530 306 579 272 q 401 340 481 340 z "},"»":{"ha":857,"x_min":110,"x_max":746,"o":"m 456 340 q 327 306 376 340 q 249 213 278 272 q 194 57 219 153 q 188 50 192 50 l 118 50 q 113 52 115 50 q 111 57 110 54 q 164 216 138 154 q 236 319 190 278 q 356 375 282 361 l 356 389 q 236 444 282 403 q 164 548 190 486 q 111 707 138 610 q 113 712 110 710 q 118 714 115 714 l 188 714 q 194 707 192 714 q 249 551 219 611 q 327 458 278 492 q 456 424 376 424 q 463 417 463 424 l 463 347 q 456 340 463 340 m 739 340 q 610 306 660 340 q 532 213 561 272 q 478 57 503 153 q 471 50 475 50 l 401 50 q 396 52 399 50 q 394 57 393 54 q 447 216 421 154 q 519 319 474 278 q 639 375 565 361 l 639 389 q 519 444 565 403 q 447 548 474 486 q 394 707 421 610 q 396 712 393 710 q 401 714 399 714 l 471 714 q 478 707 475 714 q 532 551 503 611 q 610 458 561 492 q 739 424 660 424 q 746 417 746 424 l 746 347 q 739 340 746 340 z "},"‹":{"ha":574,"x_min":111,"x_max":464,"o":"m 118 340 q 111 347 111 340 l 111 417 q 118 424 111 424 q 247 458 197 424 q 325 551 296 492 q 379 707 354 611 q 386 714 382 714 l 456 714 q 461 712 458 714 q 463 707 464 710 q 410 548 436 610 q 338 444 383 486 q 218 389 292 403 l 218 375 q 338 319 292 361 q 410 216 383 278 q 463 57 436 154 q 461 52 464 54 q 456 50 458 50 l 386 50 q 379 57 382 50 q 325 213 354 153 q 247 306 296 272 q 118 340 197 340 z "},"›":{"ha":574,"x_min":110,"x_max":463,"o":"m 456 340 q 327 306 376 340 q 249 213 278 272 q 194 57 219 153 q 188 50 192 50 l 118 50 q 113 52 115 50 q 111 57 110 54 q 164 216 138 154 q 236 319 190 278 q 356 375 282 361 l 356 389 q 236 444 282 403 q 164 548 190 486 q 111 707 138 610 q 113 712 110 710 q 118 714 115 714 l 188 714 q 194 707 192 714 q 249 551 219 611 q 327 458 278 492 q 456 424 376 424 q 463 417 463 424 l 463 347 q 456 340 463 340 z "},"\"":{"ha":444,"x_min":56,"x_max":389,"o":"m 264 1097 q 278 1111 264 1111 l 375 1111 q 389 1097 389 1111 l 389 976 q 382 885 389 926 l 354 722 q 347 715 351 715 l 306 715 q 299 722 301 715 l 271 885 q 264 976 264 926 l 264 1097 m 56 1097 q 69 1111 56 1111 l 167 1111 q 181 1097 181 1111 l 181 976 q 174 885 181 926 l 146 722 q 139 715 143 715 l 97 715 q 90 722 93 715 l 63 885 q 56 976 56 926 l 56 1097 z "},"'":{"ha":236,"x_min":56,"x_max":181,"o":"m 56 1097 q 69 1111 56 1111 l 167 1111 q 181 1097 181 1111 l 181 976 q 174 885 181 926 l 146 722 q 139 715 143 715 l 97 715 q 90 722 93 715 l 63 885 q 56 976 56 926 l 56 1097 z "},"$":{"ha":1061,"x_min":83,"x_max":978,"o":"m 978 301 q 872 74 978 156 q 572 -14 765 -7 l 572 -146 q 565 -153 572 -153 l 496 -153 q 489 -146 489 -153 l 489 -12 q 290 34 382 -4 q 141 147 199 72 q 83 335 83 222 q 88 396 83 365 q 104 406 90 407 l 250 381 q 267 363 268 376 q 256 260 256 304 q 489 31 256 56 l 489 528 l 483 531 q 273 638 351 585 q 159 751 194 692 q 124 888 124 811 q 230 1098 124 1031 q 489 1167 336 1165 l 489 1299 q 496 1306 489 1306 l 565 1306 q 572 1299 572 1306 l 572 1163 q 820 1069 721 1147 q 911 824 919 990 q 894 813 911 810 l 760 838 q 744 856 743 840 q 746 889 746 867 q 702 1040 746 979 q 572 1118 658 1100 l 572 690 q 810 575 725 628 q 937 458 896 522 q 978 301 978 393 m 263 946 q 290 847 263 886 q 363 781 318 807 q 489 724 408 756 l 489 1125 q 326 1074 389 1122 q 263 946 263 1026 m 572 28 q 769 90 700 31 q 839 256 839 149 q 810 348 839 308 q 725 420 781 388 q 572 493 669 453 l 572 28 z "},"+":{"ha":708,"x_min":56,"x_max":653,"o":"m 646 424 q 653 417 653 424 l 653 347 q 646 340 653 340 l 394 340 l 394 90 q 388 83 394 83 l 318 83 q 311 90 311 83 l 311 340 l 63 340 q 56 347 56 340 l 56 417 q 63 424 56 424 l 311 424 l 311 674 q 318 681 311 681 l 388 681 q 394 674 394 681 l 394 424 l 646 424 z "},"−":{"ha":708,"x_min":56,"x_max":653,"o":"m 56 417 q 63 424 56 424 l 646 424 q 653 417 653 424 l 653 347 q 646 340 653 340 l 63 340 q 56 347 56 340 l 56 417 z "},"=":{"ha":708,"x_min":56,"x_max":653,"o":"m 56 556 q 63 563 56 563 l 646 563 q 653 556 653 563 l 653 486 q 646 479 653 479 l 63 479 q 56 486 56 479 l 56 556 m 56 278 q 63 285 56 285 l 646 285 q 653 278 653 285 l 653 208 q 646 201 653 201 l 63 201 q 56 208 56 201 l 56 278 z "},"^":{"ha":658,"x_min":56,"x_max":606,"o":"z "},"%":{"ha":1853,"x_min":56,"x_max":1797,"o":"m 1161 1243 q 1169 1225 1174 1239 l 761 -99 q 743 -108 757 -112 l 690 -92 q 682 -74 678 -87 l 1069 1185 l 1057 1189 q 840 1054 1008 1054 q 678 1078 764 1054 q 758 960 732 1028 q 785 819 785 892 q 747 656 785 735 q 628 524 710 576 q 421 472 547 472 q 213 524 294 472 q 93 656 131 576 q 56 819 56 735 q 93 983 56 904 q 213 1115 131 1063 q 421 1167 294 1167 q 553 1149 489 1167 q 769 1119 665 1119 q 953 1153 878 1119 q 1065 1251 1028 1188 q 1076 1262 1071 1260 q 1088 1261 1081 1264 l 1161 1243 m 421 514 q 565 589 525 514 q 604 819 604 664 q 565 1050 604 975 q 421 1125 525 1125 q 276 1053 318 1125 q 233 836 233 981 q 274 592 233 671 q 421 514 314 514 m 1433 681 q 1641 628 1560 681 q 1760 497 1722 576 q 1797 333 1797 418 q 1760 169 1797 249 q 1641 38 1722 90 q 1433 -14 1560 -14 q 1225 38 1307 -14 q 1106 169 1143 90 q 1068 333 1068 249 q 1106 497 1068 418 q 1225 628 1143 576 q 1433 681 1307 681 m 1433 28 q 1577 103 1538 28 q 1617 333 1617 178 q 1577 564 1617 489 q 1433 639 1538 639 q 1288 567 1331 639 q 1246 350 1246 494 q 1286 106 1246 185 q 1433 28 1326 28 z "},"↑":{"ha":736,"x_min":56,"x_max":681,"o":"m 431 -14 q 424 -21 431 -21 l 313 -21 q 306 -14 306 -21 l 306 78 q 324 290 306 167 q 341 438 335 374 q 347 590 347 501 l 333 590 q 297 467 333 526 q 197 373 260 408 q 63 338 135 338 q 56 344 56 338 l 56 469 q 63 476 56 476 q 100 474 88 474 q 240 520 186 474 q 317 636 293 567 q 340 781 340 706 q 347 788 340 788 l 389 788 q 396 781 396 788 q 461 566 396 656 q 674 476 526 476 q 681 469 681 476 l 681 344 q 674 338 681 338 q 539 373 601 338 q 440 467 476 408 q 403 590 403 526 l 389 590 q 395 438 389 501 q 413 290 401 374 q 431 78 431 167 l 431 -14 z "},"↗":{"ha":742,"x_min":56,"x_max":689,"o":"m 146 60 q 136 60 142 56 l 58 139 q 56 144 56 142 q 58 149 56 147 l 122 214 q 198 283 161 253 q 286 351 235 314 q 404 444 357 406 q 514 546 451 483 l 504 557 q 426 506 471 524 q 332 489 382 489 q 226 509 278 489 q 135 569 175 529 q 135 579 131 575 l 222 667 q 228 669 225 669 q 232 667 231 669 q 410 572 310 572 q 533 604 472 572 q 644 686 594 636 q 654 686 650 692 l 683 657 q 683 647 689 653 q 606 541 635 597 q 576 425 576 485 q 665 235 576 324 q 665 225 671 231 l 576 138 q 572 135 575 135 q 567 138 569 135 q 506 229 526 178 q 486 335 486 281 q 503 429 486 385 q 554 507 521 474 l 544 517 q 438 403 481 454 q 349 288 396 351 q 284 206 318 247 q 211 125 250 164 l 146 60 z "},"→":{"ha":919,"x_min":56,"x_max":864,"o":"m 63 319 q 56 326 56 319 l 56 438 q 63 444 56 444 l 154 444 q 367 426 243 444 q 514 409 450 415 q 667 403 578 403 l 667 417 q 544 453 603 417 q 449 553 485 490 q 414 688 414 615 q 421 694 414 694 l 546 694 q 553 688 553 694 q 550 650 550 663 q 597 510 550 564 q 713 433 643 457 q 857 410 782 410 q 864 403 864 410 l 864 361 q 857 354 864 354 q 642 289 732 354 q 553 76 553 224 q 546 69 553 69 l 421 69 q 414 76 414 69 q 449 211 414 149 q 544 310 485 274 q 667 347 603 347 l 667 361 q 514 355 578 361 q 367 338 450 349 q 154 319 243 319 l 63 319 z "},"↘":{"ha":742,"x_min":56,"x_max":689,"o":"m 211 621 q 284 540 250 582 q 349 458 318 499 q 438 343 396 394 q 544 229 481 292 l 554 239 q 503 317 521 272 q 486 411 486 361 q 506 517 486 465 q 567 608 526 568 q 572 611 569 611 q 576 608 575 611 l 665 521 q 665 511 671 517 q 576 321 576 422 q 606 205 576 261 q 683 99 635 149 q 683 89 689 94 l 654 60 q 644 60 650 56 q 533 142 594 110 q 410 174 472 174 q 232 79 310 174 q 228 76 231 76 q 222 79 225 76 l 135 167 q 135 176 131 172 q 226 237 175 217 q 332 257 278 257 q 426 240 382 257 q 504 189 471 222 l 514 200 q 404 301 451 263 q 286 394 357 340 q 198 463 235 432 q 122 532 161 493 l 58 597 q 56 603 56 600 q 58 607 56 606 l 136 686 q 146 686 142 692 l 211 621 z "},"↓":{"ha":736,"x_min":56,"x_max":681,"o":"m 431 689 q 413 476 431 600 q 395 329 401 393 q 389 176 389 265 l 403 176 q 440 299 403 240 q 539 394 476 358 q 674 429 601 429 q 681 422 681 429 l 681 297 q 674 290 681 290 q 461 201 526 290 q 396 -14 396 111 q 389 -21 396 -21 l 347 -21 q 340 -14 340 -21 q 317 131 340 61 q 240 247 293 200 q 100 293 186 293 q 63 290 88 293 q 56 297 56 290 l 56 422 q 63 429 56 429 q 197 394 135 429 q 297 299 260 358 q 333 176 333 240 l 347 176 q 341 329 347 265 q 324 476 335 393 q 306 689 306 600 l 306 781 q 313 788 306 788 l 424 788 q 431 781 431 788 l 431 689 z "},"↙":{"ha":742,"x_min":54,"x_max":686,"o":"m 596 686 q 606 686 601 692 l 683 607 q 686 603 686 606 q 683 597 686 600 l 619 532 q 544 463 581 493 q 456 394 507 432 q 338 301 385 340 q 228 200 290 263 l 238 189 q 315 240 271 222 q 410 257 360 257 q 515 237 464 257 q 607 176 567 217 q 607 167 613 172 l 519 79 q 515 76 518 76 q 510 79 513 76 q 332 174 432 174 q 208 142 269 174 q 97 60 147 110 q 88 60 93 56 l 58 89 q 58 99 54 94 q 136 205 107 149 q 165 321 165 261 q 76 511 165 422 q 76 521 72 517 l 165 608 q 171 611 168 611 q 175 608 174 611 q 235 517 215 568 q 256 411 256 465 q 238 317 256 361 q 188 239 221 272 l 197 229 q 303 343 261 292 q 393 458 346 394 q 458 540 424 499 q 531 621 492 582 l 596 686 z "},"←":{"ha":933,"x_min":69,"x_max":878,"o":"m 779 319 q 567 338 690 319 q 419 355 483 349 q 267 361 356 361 l 267 347 q 390 310 331 347 q 484 211 449 274 q 519 76 519 149 q 513 69 519 69 l 388 69 q 381 76 381 69 q 291 289 381 224 q 76 354 201 354 q 69 361 69 354 l 69 403 q 76 410 69 410 q 221 433 151 410 q 337 510 290 457 q 383 650 383 564 q 381 688 383 663 q 388 694 381 694 l 513 694 q 519 688 519 694 q 484 553 519 615 q 390 453 449 490 q 267 417 331 417 l 267 403 q 419 409 356 403 q 567 426 483 415 q 779 444 690 444 l 871 444 q 878 438 878 444 l 878 326 q 871 319 878 319 l 779 319 z "},"↖":{"ha":742,"x_min":54,"x_max":686,"o":"m 531 125 q 458 206 492 164 q 393 288 424 247 q 303 403 346 351 q 197 517 261 454 l 188 507 q 238 429 221 474 q 256 335 256 385 q 235 229 256 281 q 175 138 215 178 q 171 135 174 135 q 165 138 168 135 l 76 225 q 76 235 72 231 q 165 425 165 324 q 136 541 165 485 q 58 647 107 597 q 58 657 54 653 l 88 686 q 97 686 93 692 q 208 604 147 636 q 332 572 269 572 q 510 667 432 572 q 515 669 513 669 q 519 667 518 669 l 607 579 q 607 569 613 575 q 515 509 567 529 q 410 489 464 489 q 315 506 360 489 q 238 557 271 524 l 228 546 q 338 444 290 483 q 456 351 385 406 q 544 283 507 314 q 619 214 581 253 l 683 149 q 686 144 686 147 q 683 139 686 142 l 606 60 q 596 60 601 56 l 531 125 z "},"↔":{"ha":1364,"x_min":56,"x_max":1308,"o":"m 1301 410 q 1308 403 1308 410 l 1308 361 q 1301 354 1308 354 q 1087 289 1176 354 q 997 76 997 224 q 990 69 997 69 l 865 69 q 858 76 858 69 q 894 211 858 149 q 988 310 929 274 q 1111 347 1047 347 l 1111 361 q 970 355 1022 361 q 858 338 918 349 q 775 324 813 328 q 682 319 738 319 q 589 324 626 319 q 506 338 551 328 q 394 355 446 349 q 253 361 342 361 l 253 347 q 376 310 317 347 q 470 211 435 274 q 506 76 506 149 q 499 69 506 69 l 374 69 q 367 76 367 69 q 277 289 367 224 q 63 354 188 354 q 56 361 56 354 l 56 403 q 63 410 56 410 q 207 433 138 410 q 323 510 276 457 q 369 650 369 564 q 367 688 369 663 q 374 694 367 694 l 499 694 q 506 688 506 694 q 470 553 506 615 q 376 453 435 490 q 253 417 317 417 l 253 403 q 394 409 342 403 q 506 426 446 415 q 589 440 551 436 q 682 444 626 444 q 775 440 738 444 q 858 426 813 436 q 970 409 918 415 q 1111 403 1022 403 l 1111 417 q 988 453 1047 417 q 894 553 929 490 q 858 688 858 615 q 865 694 858 694 l 990 694 q 997 688 997 694 q 994 650 994 663 q 1041 510 994 564 q 1157 433 1088 457 q 1301 410 1226 410 z "},"↕":{"ha":736,"x_min":56,"x_max":681,"o":"m 674 557 q 539 592 601 557 q 440 687 476 628 q 403 810 403 746 l 389 810 q 395 669 389 721 q 413 557 401 617 q 426 474 422 511 q 431 381 431 436 q 426 288 431 325 q 413 204 422 250 q 395 92 401 144 q 389 -49 389 40 l 403 -49 q 440 74 403 15 q 539 169 476 133 q 674 204 601 204 q 681 197 681 204 l 681 72 q 674 65 681 65 q 636 68 649 68 q 497 22 550 68 q 419 -94 443 -25 q 396 -239 396 -164 q 389 -246 396 -246 l 347 -246 q 340 -239 340 -246 q 275 -24 340 -114 q 63 65 210 65 q 56 72 56 65 l 56 197 q 63 204 56 204 q 197 169 135 204 q 297 74 260 133 q 333 -49 333 15 l 347 -49 q 341 92 347 40 q 324 204 335 144 q 310 288 314 250 q 306 381 306 325 q 310 474 306 436 q 324 557 314 511 q 341 669 335 617 q 347 810 347 721 l 333 810 q 297 687 333 746 q 197 592 260 628 q 63 557 135 557 q 56 564 56 557 l 56 689 q 63 696 56 696 q 275 785 210 696 q 340 1000 340 875 q 347 1007 340 1007 l 389 1007 q 396 1000 396 1007 q 419 856 396 925 q 497 740 443 786 q 636 693 550 693 q 674 696 649 693 q 681 689 681 696 l 681 564 q 674 557 681 557 z "},"@":{"ha":1501,"x_min":56,"x_max":1447,"o":"m 56 363 q 141 702 56 550 q 380 942 226 854 q 731 1029 533 1029 q 1066 950 926 1029 q 1277 736 1206 871 q 1349 438 1349 601 q 1304 217 1349 311 q 1192 69 1260 122 q 1054 0 1124 15 q 949 -14 989 -14 q 903 1 919 -14 q 886 42 886 17 q 891 65 886 54 q 908 94 896 76 l 894 94 q 792 9 853 32 q 640 -14 732 -14 q 406 52 494 -14 q 318 250 318 118 q 415 454 318 386 q 411 511 411 483 q 494 713 411 647 q 713 778 576 778 q 965 698 874 778 q 1056 418 1056 618 l 1054 83 q 1161 153 1113 100 q 1238 281 1210 206 q 1265 438 1265 356 q 1205 695 1265 579 q 1024 878 1144 811 q 731 946 903 946 q 421 869 556 946 q 213 660 286 793 q 139 363 139 528 q 210 66 139 196 q 419 -137 282 -64 q 744 -210 556 -210 q 971 -178 851 -210 q 1208 -67 1090 -147 q 1406 153 1325 14 q 1409 157 1407 156 q 1414 157 1411 158 l 1442 147 q 1446 142 1444 146 q 1446 136 1447 139 q 1235 -117 1357 -21 q 988 -253 1114 -212 q 744 -293 861 -293 q 378 -209 533 -293 q 139 24 222 -125 q 56 363 56 174 m 449 475 q 640 514 526 514 q 792 491 732 514 q 894 406 853 468 l 908 406 l 908 486 q 855 649 907 589 q 688 708 803 708 q 515 667 585 708 q 444 521 444 625 q 449 475 444 500 m 499 250 q 553 91 499 154 q 701 28 607 28 q 857 88 800 28 q 914 250 914 149 q 859 410 914 347 q 704 472 804 472 q 553 410 608 472 q 499 250 499 347 z "},"&":{"ha":1138,"x_min":56,"x_max":1082,"o":"m 1003 -125 q 1003 -131 1004 -128 q 1000 -135 1003 -133 l 975 -149 q 969 -149 972 -150 q 965 -147 967 -149 l 829 92 q 504 -14 686 -14 q 180 81 304 -14 q 56 364 56 175 q 139 590 56 513 q 353 668 222 668 q 456 649 408 668 q 531 592 504 631 l 543 592 l 229 1139 q 228 1143 228 1140 q 238 1153 228 1153 l 961 1153 q 968 1146 968 1153 l 968 871 q 961 864 968 864 l 933 864 q 926 871 926 864 q 911 964 926 935 q 853 1003 896 993 q 715 1014 810 1014 l 511 1014 q 413 1016 444 1014 q 360 1029 382 1018 q 325 1065 339 1040 l 311 1065 l 821 188 q 885 349 865 258 q 906 536 906 440 q 900 639 906 596 l 768 639 q 761 646 761 639 l 761 674 q 768 681 761 681 l 1071 681 q 1081 671 1081 681 q 1082 621 1082 654 q 1024 342 1082 476 q 861 118 965 208 l 1003 -125 m 531 28 q 794 150 697 28 l 604 483 q 512 581 561 550 q 400 613 463 613 q 278 540 321 613 q 236 372 236 468 q 313 117 236 207 q 531 28 390 28 z "},"©":{"ha":1513,"x_min":96,"x_max":1417,"o":"m 757 -279 q 416 -190 567 -279 q 181 50 265 -101 q 96 382 96 201 q 181 714 96 563 q 416 954 265 865 q 757 1043 567 1043 q 1098 954 947 1043 q 1333 715 1249 865 q 1417 382 1417 564 q 1333 49 1417 200 q 1098 -190 1249 -101 q 757 -279 947 -279 m 757 -196 q 1056 -119 925 -196 q 1260 90 1188 -42 q 1333 382 1333 222 q 1260 674 1333 542 q 1056 883 1188 806 q 757 960 925 960 q 457 882 589 960 q 252 672 325 804 q 179 382 179 540 q 252 92 179 224 q 457 -118 325 -40 q 757 -196 589 -196 m 367 396 q 415 592 367 506 q 553 728 463 679 q 764 778 643 778 q 1050 677 951 778 q 1138 404 1149 576 q 1135 399 1138 401 q 1129 397 1132 396 l 963 429 q 957 436 957 432 q 913 662 964 588 q 764 736 863 736 q 595 649 643 736 q 547 396 547 563 q 618 113 547 193 q 814 33 689 33 q 1017 99 942 33 q 1131 246 1092 164 q 1139 251 1132 251 l 1167 251 q 1172 243 1175 251 q 1042 68 1135 150 q 781 -14 949 -14 q 549 42 642 -14 q 411 190 456 97 q 367 396 367 282 z "},"®":{"ha":908,"x_min":83,"x_max":825,"o":"m 454 1208 q 647 1161 563 1208 q 778 1029 732 1114 q 825 836 825 944 q 778 643 825 728 q 647 511 732 558 q 454 464 563 464 q 262 511 346 464 q 131 643 178 558 q 83 836 83 728 q 131 1029 83 944 q 262 1161 178 1114 q 454 1208 346 1208 m 454 506 q 626 547 551 506 q 742 664 700 589 q 783 836 783 739 q 742 1010 783 935 q 626 1126 700 1085 q 454 1167 551 1167 q 283 1125 357 1167 q 167 1008 208 1083 q 125 836 125 933 q 167 664 125 739 q 283 547 208 589 q 454 506 357 506 m 683 642 q 686 639 686 642 l 686 629 q 683 626 686 626 q 604 631 632 626 q 556 658 576 636 q 526 728 536 679 q 517 782 524 740 q 500 832 510 824 q 471 840 490 840 q 424 847 443 840 q 385 865 404 853 l 379 865 l 379 721 q 383 669 379 686 q 399 647 388 653 q 433 642 410 642 q 436 639 436 642 l 436 629 q 433 626 436 626 l 261 626 q 258 629 258 626 l 258 639 q 261 642 258 642 q 295 647 285 642 q 310 669 306 653 q 314 721 314 686 l 314 964 q 310 1015 314 999 q 295 1038 306 1032 q 261 1043 285 1043 q 258 1046 258 1043 l 258 1056 q 261 1058 258 1058 l 450 1058 q 568 1028 528 1058 q 608 949 608 997 q 585 885 608 913 q 522 847 563 857 l 522 842 q 555 828 544 838 q 572 799 565 819 q 592 731 579 779 q 622 662 603 682 q 683 642 642 642 m 461 856 q 525 881 510 856 q 540 949 540 907 q 522 1017 540 992 q 440 1043 503 1043 l 379 1043 q 350 1049 364 1043 l 350 1043 q 374 1015 369 1032 q 379 954 379 997 l 379 882 q 461 856 414 856 z "},"™":{"ha":1531,"x_min":14,"x_max":1475,"o":"m 586 1167 l 606 1083 q 603 1079 606 1079 l 589 1076 q 586 1076 588 1075 q 585 1078 585 1076 q 567 1125 578 1110 q 532 1147 556 1140 q 463 1153 508 1153 l 432 1153 q 365 1130 382 1153 q 349 1054 349 1107 l 349 779 q 354 710 349 732 q 374 681 360 689 q 421 674 389 674 q 424 671 424 674 l 424 657 q 421 653 424 653 l 188 653 q 183 657 183 653 l 183 671 q 188 674 183 674 q 233 681 218 674 q 253 710 247 689 q 258 779 258 732 l 258 938 l 258 1018 q 263 1085 258 1063 q 284 1122 268 1107 q 335 1153 300 1138 l 335 1167 q 294 1155 310 1157 q 253 1153 278 1153 l 157 1153 q 88 1147 111 1153 q 53 1125 64 1140 q 35 1078 42 1110 q 33 1076 35 1076 q 31 1076 32 1075 l 17 1079 q 14 1083 14 1079 l 33 1167 l 46 1218 q 51 1222 49 1222 l 67 1222 q 75 1214 75 1222 q 83 1198 75 1201 q 111 1194 92 1194 l 496 1194 q 531 1198 518 1194 q 544 1215 544 1201 q 551 1222 544 1222 l 568 1222 q 574 1218 572 1222 l 586 1167 m 1472 1174 q 1426 1166 1440 1174 q 1406 1137 1411 1158 q 1400 1068 1400 1115 l 1400 779 q 1406 710 1400 732 q 1426 681 1411 689 q 1472 674 1440 674 q 1475 671 1475 674 l 1475 657 q 1472 653 1475 653 l 1239 653 q 1235 657 1235 653 l 1235 671 q 1239 674 1235 674 q 1284 681 1269 674 q 1304 710 1299 689 q 1310 779 1310 732 l 1310 1103 l 1296 1103 l 1057 644 q 1049 639 1054 639 q 1042 644 1044 639 l 824 1096 q 794 1135 810 1124 q 754 1153 778 1146 l 754 1139 q 774 1096 769 1119 q 778 1000 778 1072 l 778 779 q 783 710 778 732 q 803 681 789 689 q 850 674 818 674 q 853 671 853 674 l 853 657 q 850 653 853 653 l 665 653 q 661 657 661 653 l 661 671 q 665 674 661 674 q 710 681 696 674 q 731 710 725 689 q 736 779 736 732 l 736 1068 q 731 1137 736 1115 q 711 1166 725 1158 q 665 1174 697 1174 q 661 1178 661 1174 l 661 1192 q 665 1194 661 1194 l 858 1194 q 896 1172 886 1194 l 1046 865 q 1064 803 1064 829 q 1056 756 1064 779 l 1069 756 l 1282 1171 q 1298 1188 1288 1182 q 1321 1194 1308 1194 l 1472 1194 q 1475 1192 1475 1194 l 1475 1178 q 1472 1174 1475 1174 z "},"|":{"ha":194,"x_min":56,"x_max":139,"o":"m 56 1188 q 63 1194 56 1194 l 132 1194 q 139 1188 139 1194 l 139 -368 q 132 -375 139 -375 l 63 -375 q 56 -368 56 -375 l 56 1188 z "},"̈":{"ha":0,"x_min":-500,"x_max":-56,"o":"m -412 938 q -477 962 -454 938 q -500 1024 -500 986 q -477 1085 -500 1061 q -412 1110 -454 1110 q -349 1085 -372 1110 q -326 1024 -326 1061 q -349 962 -326 986 q -412 938 -372 938 m -142 938 q -206 962 -183 938 q -229 1024 -229 986 q -206 1085 -229 1061 q -142 1110 -183 1110 q -78 1085 -101 1110 q -56 1024 -56 1061 q -78 962 -56 986 q -142 938 -101 938 z "},"̀":{"ha":0,"x_min":-560,"x_max":-62,"o":"m -69 968 q -65 958 -62 965 l -74 928 q -83 924 -76 921 l -553 1046 q -557 1056 -560 1049 l -539 1122 q -529 1126 -536 1129 l -69 968 z "},"́":{"ha":0,"x_min":-550,"x_max":-53,"o":"m -83 1126 q -74 1122 -76 1129 l -56 1056 q -60 1046 -53 1049 l -529 924 q -539 928 -536 921 l -547 958 q -543 968 -550 965 l -83 1126 z "},"̂":{"ha":0,"x_min":-603,"x_max":-53,"o":"m -58 965 q -57 956 -53 963 l -82 925 q -92 924 -85 921 l -324 1040 q -332 1040 -328 1043 l -567 924 q -576 925 -572 921 l -601 956 q -603 960 -603 957 q -600 965 -603 964 l -332 1136 q -324 1136 -328 1139 l -58 965 z "},"̃":{"ha":0,"x_min":-656,"x_max":-56,"o":"m -128 1113 q -125 1118 -128 1115 q -119 1121 -122 1121 l -81 1121 q -74 1115 -76 1121 q -56 1029 -56 1069 q -87 944 -56 975 q -175 913 -118 913 q -276 933 -231 913 q -382 993 -321 954 q -458 1038 -429 1024 q -515 1051 -486 1051 q -573 1033 -551 1051 q -594 979 -594 1015 q -587 938 -594 963 l -587 935 q -596 926 -587 926 l -635 926 q -642 932 -639 926 q -656 1003 -656 968 q -617 1098 -656 1061 q -515 1135 -578 1135 q -415 1114 -460 1135 q -308 1054 -369 1093 q -233 1010 -261 1024 q -175 996 -204 996 q -118 1056 -118 996 q -128 1110 -118 1081 l -128 1113 z "},"̧":{"ha":0,"x_min":-372,"x_max":-56,"o":"m -367 -322 q -372 -315 -372 -321 l -372 -247 q -362 -240 -372 -237 q -237 -265 -287 -265 q -164 -244 -189 -265 q -139 -187 -139 -224 q -164 -142 -139 -154 q -253 -131 -189 -131 l -326 -131 l -237 0 l -169 0 l -236 -89 l -201 -89 q -91 -112 -126 -89 q -56 -190 -56 -136 q -108 -302 -56 -261 q -244 -343 -161 -343 q -367 -322 -303 -343 z "},"¨":{"ha":556,"x_min":56,"x_max":500,"o":"m 143 938 q 78 962 101 938 q 56 1024 56 986 q 78 1085 56 1061 q 143 1110 101 1110 q 206 1085 183 1110 q 229 1024 229 1061 q 206 962 229 986 q 143 938 183 938 m 414 938 q 349 962 372 938 q 326 1024 326 986 q 349 1085 326 1061 q 414 1110 372 1110 q 477 1085 454 1110 q 500 1024 500 1061 q 477 962 500 986 q 414 938 454 938 z "},"`":{"ha":613,"x_min":53,"x_max":550,"o":"m 543 968 q 547 958 550 965 l 539 928 q 529 924 536 921 l 60 1046 q 56 1056 53 1049 l 74 1122 q 83 1126 76 1129 l 543 968 z "},"´":{"ha":613,"x_min":63,"x_max":560,"o":"m 529 1126 q 539 1122 536 1129 l 557 1056 q 553 1046 560 1049 l 83 924 q 74 928 76 921 l 65 958 q 69 968 63 965 l 529 1126 z "},"ˆ":{"ha":658,"x_min":56,"x_max":606,"o":"m 600 965 q 601 956 606 963 l 576 925 q 567 924 574 921 l 335 1040 q 326 1040 331 1043 l 92 924 q 82 925 86 921 l 57 956 q 56 960 56 957 q 58 965 56 964 l 326 1136 q 335 1136 331 1139 l 600 965 z "},"˜":{"ha":711,"x_min":56,"x_max":656,"o":"m 583 1113 q 586 1118 583 1115 q 592 1121 589 1121 l 631 1121 q 638 1115 635 1121 q 656 1029 656 1069 q 624 944 656 975 q 536 913 593 913 q 435 933 481 913 q 329 993 390 954 q 253 1038 282 1024 q 196 1051 225 1051 q 138 1033 160 1051 q 117 979 117 1015 q 124 938 117 963 l 124 935 q 115 926 124 926 l 76 926 q 69 932 72 926 q 56 1003 56 968 q 94 1098 56 1061 q 196 1135 133 1135 q 297 1114 251 1135 q 403 1054 342 1093 q 478 1010 450 1024 q 536 996 507 996 q 593 1056 593 996 q 583 1110 593 1081 l 583 1113 z "},"¸":{"ha":428,"x_min":56,"x_max":372,"o":"m 61 -322 q 56 -315 56 -321 l 56 -247 q 65 -240 56 -237 q 190 -265 140 -265 q 264 -244 239 -265 q 289 -187 289 -224 q 264 -142 289 -154 q 175 -131 239 -131 l 101 -131 l 190 0 l 258 0 l 192 -89 l 226 -89 q 337 -112 301 -89 q 372 -190 372 -136 q 319 -302 372 -261 q 183 -343 267 -343 q 61 -322 125 -343 z "}}}
